<svg width="70" height="71" viewBox="0 0 70 71" fill="none" xmlns="http://www.w3.org/2000/svg">
<path fill-rule="evenodd" clip-rule="evenodd" d="M9.1349 26.4987C8.87507 26.9787 8.27485 27.1573 7.79515 26.8972C7.31544 26.6377 7.13685 26.0374 7.39668 25.5574C7.63435 25.1183 8.09828 24.6557 8.79551 24.2297C9.61461 23.7289 10.7983 23.2358 12.2377 22.7755C17.5464 21.0806 26.4879 19.7509 32.7392 19.3911C43.3488 18.7808 53.2316 20.4183 58.2526 22.4543C59.6672 23.027 60.7192 23.6473 61.352 24.2475C61.9593 24.8226 62.2359 25.4272 62.2604 25.9834C62.2849 26.5286 61.8619 26.9908 61.3168 27.015C60.7719 27.0395 60.3097 26.6169 60.2855 26.0717C60.2822 25.9965 60.2201 25.9347 60.1573 25.8575C60.0532 25.7306 59.9156 25.6047 59.7504 25.4768C59.2274 25.0707 58.4661 24.6735 57.5103 24.2861C52.6582 22.3196 43.1044 20.7748 32.8526 21.3653C26.7507 21.7161 18.021 23.0038 12.8396 24.6591C11.5818 25.0609 10.5428 25.4792 9.82676 25.9159C9.50014 26.1157 9.24669 26.2922 9.1349 26.4987Z" fill="#3A383D"/>
<path fill-rule="evenodd" clip-rule="evenodd" d="M60.2861 25.9824C60.3059 25.5376 60.6275 25.1469 61.0841 25.0576C61.6195 24.9529 62.1392 25.3027 62.2439 25.8388L62.2694 26.1919L62.2154 26.5286L62.1026 26.822L61.9535 27.0738C61.6212 27.5505 60.8578 28.1043 59.7205 28.622C54.3756 31.0527 39.8474 33.7675 34.757 33.7014C30.3255 33.6426 18.5762 33.5721 12.1746 31.2723C8.93277 30.1071 7.04349 28.2732 7.30298 25.9193C7.36273 25.3775 7.8515 24.9858 8.39365 25.0455C8.93613 25.1049 9.32788 25.5937 9.26813 26.1369C9.19461 26.8022 9.47894 27.3584 9.98483 27.8415C10.6465 28.4739 11.6418 28.9805 12.8429 29.4119C19.061 31.6452 30.4789 31.6674 34.7832 31.7238C39.0978 31.7812 50.4104 29.7674 56.6405 27.6871C57.9182 27.2611 58.9746 26.8364 59.6916 26.4215C59.9232 26.2879 60.1831 26.0717 60.2861 25.9824Z" fill="#3A383D"/>
<path fill-rule="evenodd" clip-rule="evenodd" d="M7.27761 26.476C7.26451 25.9308 7.69655 25.4773 8.24205 25.4642C8.78722 25.4507 9.24074 25.8835 9.25417 26.4286C9.50258 36.7317 9.07625 40.9977 9.13164 43.036C9.14608 43.5668 9.15312 43.878 9.31627 44.1042C9.41698 44.2432 9.57039 44.3382 9.76543 44.4607C10.2273 44.7521 10.3667 45.3621 10.0763 45.8246C9.78591 46.2859 9.17528 46.4249 8.71337 46.1345C8.12792 45.7672 7.76805 45.4252 7.52434 44.9539C7.30513 44.5302 7.17925 43.974 7.15541 43.0891C7.10002 41.0507 7.52635 36.7838 7.27761 26.476Z" fill="#3A383D"/>
<path fill-rule="evenodd" clip-rule="evenodd" d="M48.7292 45.6299C49.6705 45.8474 50.5067 45.406 51.2194 44.8091C52.6534 43.6073 53.6306 41.7291 53.9506 41.2612C54.7895 40.0318 55.6596 39.6955 56.4179 39.7297C56.9016 39.7515 57.379 39.9372 57.8332 40.2615C58.33 40.6156 58.8111 41.1531 59.2609 41.7224C59.5785 42.1242 59.8819 42.5391 60.173 42.8866C60.2586 42.9883 60.3757 43.1051 60.4768 43.2011C60.6453 42.9175 60.7903 42.6858 60.8605 41.1145C60.9545 39.0191 60.9024 34.9206 60.558 26.492C60.5359 25.9468 60.9605 25.4869 61.5057 25.4648C62.0505 25.4416 62.5114 25.8663 62.5336 26.4114C62.8817 34.937 62.9304 39.0828 62.8357 41.2027C62.7256 43.6624 62.4198 43.7661 62.1485 44.2582C61.7722 44.9414 61.3184 45.2183 60.9112 45.3133L60.5795 45.3519L60.2643 45.322L59.8584 45.1874C59.75 45.1377 59.6399 45.0736 59.5291 44.9978C59.1551 44.7393 58.7493 44.2858 58.3357 43.7574C57.8829 43.178 57.4052 42.4928 56.8865 42.0326C56.6915 41.8594 56.5173 41.6872 56.3028 41.7049C56.053 41.7268 55.8566 41.9752 55.583 42.3757C55.2248 42.901 54.0959 44.9776 52.4889 46.3241C51.2173 47.3899 49.6695 48.0036 47.9678 47.4705L47.6764 47.3305C47.6023 47.2818 47.5012 47.2013 47.3837 47.0898C47.0467 46.7675 46.3847 45.982 45.6667 45.461C45.4186 45.2824 45.1893 45.0881 44.9573 45.1179C44.9043 45.1247 44.8905 45.1908 44.8502 45.2579C44.7834 45.3684 44.7254 45.5053 44.672 45.6698C44.5525 46.0381 43.9103 48.2298 40.6645 48.392C39.5802 48.446 38.6805 47.7011 37.8504 46.6792C37.519 46.2721 37.187 45.8276 36.8107 45.4577C36.5405 45.1918 36.2515 44.9602 35.8936 44.8752C35.5478 44.7923 35.1521 44.8652 34.6683 45.1045C33.9996 45.4368 33.2265 46.0535 32.294 47.0358C30.6988 48.7142 28.7813 51.1762 26.8702 52.4209C25.6805 53.1954 24.473 53.5244 23.3249 53.2165C22.2322 52.9228 21.1174 52.0292 20.1533 50.1047C19.4769 48.7538 19.1287 47.5134 18.7628 46.6517C18.6658 46.4221 18.4896 46.1509 18.4376 46.0723C18.3892 46.0824 18.2949 46.1045 18.2264 46.1331C17.9756 46.2358 17.6839 46.4157 17.3325 46.6715C15.3881 48.0875 14.0819 48.3533 13.1447 48.2154C12.4229 48.1096 11.8627 47.7662 11.3668 47.3392C11.1221 47.1284 10.8949 46.8958 10.6605 46.6836C10.4564 46.4983 10.2584 46.313 9.98446 46.2623C9.73235 46.217 9.46917 46.259 9.21706 46.2126C8.68063 46.1143 8.32446 45.599 8.42248 45.0629C8.5205 44.5254 9.03579 44.1699 9.57256 44.2683C9.82467 44.3136 10.0879 44.2717 10.34 44.318C11.1084 44.458 11.6945 44.9336 12.2618 45.4755C12.6076 45.8044 12.9271 46.2016 13.4676 46.2643C14.0923 46.3362 14.899 45.9975 16.1686 45.0736C17.4197 44.1622 18.2999 43.9957 18.9099 44.1391C19.6027 44.3012 20.1566 44.8752 20.583 45.8793C20.9365 46.7125 21.2671 47.9143 21.921 49.2184C22.5357 50.4467 23.1399 51.1198 23.8368 51.3064C24.4777 51.4783 25.1269 51.197 25.7913 50.7646C27.5875 49.5947 29.3614 47.2519 30.8606 45.6742C32.9318 43.4935 34.4924 42.849 35.659 42.8658C36.9568 42.8832 37.9296 43.6788 38.7551 44.6567C39.1589 45.1367 39.5265 45.653 39.9219 46.0414C40.1237 46.2402 40.309 46.4298 40.5658 46.4177C42.3124 46.3295 42.7273 45.2579 42.7918 45.0605C43.1275 44.0256 43.6592 43.5234 44.1856 43.2981C44.7693 43.0477 45.4313 43.1028 46.0973 43.4197C47.0746 43.8853 48.4183 45.2955 48.7292 45.6299Z" fill="#3A383D"/>
<path fill-rule="evenodd" clip-rule="evenodd" d="M8.64361 45.6336C8.49389 45.1082 8.79836 44.561 9.32271 44.411C9.8474 44.2619 10.3949 44.5654 10.5446 45.0907C10.9126 46.3785 12.0153 54.0632 12.493 60.4954C12.5336 61.0395 12.1247 61.5139 11.5806 61.5548C11.0364 61.5944 10.5621 61.1862 10.5218 60.6421C10.0562 54.3754 9.00213 46.8884 8.64361 45.6336Z" fill="#3A383D"/>
<path fill-rule="evenodd" clip-rule="evenodd" d="M59.155 44.34C59.0221 43.8106 59.3433 43.2732 59.8724 43.1396C60.4014 43.006 60.9392 43.3282 61.0725 43.857C61.8181 46.8198 61.9956 53.584 62.0144 54.0664C62.0356 54.6116 61.6103 55.0715 61.0651 55.0926C60.5199 55.1134 60.06 54.6888 60.0389 54.1436C60.0208 53.6814 59.8714 47.184 59.155 44.34Z" fill="#3A383D"/>
<path fill-rule="evenodd" clip-rule="evenodd" d="M61.9926 53.5003C61.994 53.5496 62.04 55.1543 62.051 56.4477C62.0655 58.1258 61.9339 59.9587 61.4545 60.9201C61.2672 61.2951 60.8875 61.6848 60.2903 62.0168C59.343 62.5432 57.7152 63.0102 55.736 63.3908C49.5364 64.5835 39.7227 65.0723 38.1151 65.2136C25.3601 66.3372 18.7191 66.0415 15.2238 65.1619C13.2127 64.6554 12.1298 63.9293 11.502 63.1844C10.8229 62.3787 10.6339 61.5146 10.5278 60.6949C10.4577 60.1541 10.84 59.6576 11.3812 59.5881C11.9223 59.5176 12.4185 59.9003 12.4883 60.4411C12.5504 60.9201 12.6172 61.4398 13.0136 61.9098C13.4611 62.4418 14.2725 62.8833 15.7066 63.2438C19.1014 64.0991 25.5525 64.3355 37.9416 63.2451C39.5311 63.1048 49.2336 62.6295 55.3627 61.4499C56.8582 61.1618 58.1322 60.8372 58.9909 60.4565C59.2191 60.3552 59.4125 60.2524 59.5619 60.142C59.6136 60.1034 59.6646 60.0792 59.6854 60.0373C60.0671 59.2725 60.0856 57.8015 60.0742 56.4641C60.0601 54.831 59.9872 53.3512 60.0715 53.0367C60.2125 52.5093 60.7546 52.1958 61.2816 52.3371C61.7932 52.4737 62.1034 52.988 61.9926 53.5003Z" fill="#3A383D"/>
<path fill-rule="evenodd" clip-rule="evenodd" d="M11.8436 55.4158C11.8148 55.4091 11.7859 55.4014 11.757 55.3916C11.2394 55.2194 10.9588 54.6598 11.1306 54.1412L11.272 53.8686L11.4452 53.6867L11.7621 53.5134L12.0518 53.4648L12.3089 53.4946C12.3344 53.5014 12.4741 53.539 12.7215 53.5984C15.1744 54.1966 28.3252 57.0345 46.2411 53.5917C53.244 52.2455 59.2983 49.9877 59.777 49.7362C60.2597 49.4814 60.8579 49.6677 61.112 50.1501C61.3661 50.6332 61.1805 51.2314 60.6978 51.4852C60.1996 51.7477 53.9053 54.1315 46.6141 55.533C28.2486 59.0618 14.7679 56.1318 12.2532 55.5195C12.0326 55.4655 11.8769 55.4245 11.8436 55.4158Z" fill="#3A383D"/>
<path fill-rule="evenodd" clip-rule="evenodd" d="M11.0923 56.3418C10.573 56.1753 10.287 55.618 10.4538 55.0981C10.621 54.5794 11.1783 54.2927 11.6976 54.4602C24.937 58.7175 40.5346 55.937 43.0016 55.4989C47.7114 54.6643 59.1032 51.066 60.2328 50.5628C60.7313 50.3399 61.3161 50.5638 61.538 51.0627C61.7602 51.5615 61.5359 52.1463 61.0378 52.3682C59.878 52.8845 48.1831 56.5889 43.3467 57.4452C40.8045 57.8967 24.7342 60.7293 11.0923 56.3418Z" fill="#3A383D"/>
<path fill-rule="evenodd" clip-rule="evenodd" d="M10.3473 43.7798C10.2338 43.7741 10.1456 43.6781 10.1506 43.5646C10.1556 43.4508 10.2523 43.3625 10.3661 43.3679C11.304 43.4099 11.8072 43.6163 12.1211 43.859C12.4316 44.0987 12.5565 44.38 12.7244 44.6049C12.7925 44.6956 12.7737 44.8248 12.6827 44.893C12.5914 44.9614 12.4618 44.9426 12.3937 44.8523C12.2453 44.6536 12.1433 44.3975 11.869 44.1857C11.5978 43.9762 11.1577 43.8161 10.3473 43.7798Z" fill="#3A383D"/>
<path fill-rule="evenodd" clip-rule="evenodd" d="M11.2731 43.2244C11.166 43.264 11.0475 43.208 11.0086 43.1009C10.9696 42.9938 11.025 42.8756 11.1321 42.837C11.2546 42.7917 11.4624 42.8182 11.6924 42.9122C12.1053 43.0787 12.6249 43.4285 12.6981 43.4782C12.7924 43.5423 12.8173 43.6702 12.7535 43.7642C12.6897 43.8589 12.5611 43.8834 12.4668 43.8203C12.3993 43.7739 11.9193 43.4483 11.5376 43.2939C11.4661 43.2654 11.399 43.2432 11.3399 43.2311C11.313 43.2254 11.2902 43.219 11.2731 43.2244Z" fill="#3A383D"/>
<path fill-rule="evenodd" clip-rule="evenodd" d="M21.6993 47.1553C21.651 47.0526 21.695 46.929 21.798 46.8807C21.9007 46.832 22.0239 46.876 22.0726 46.9787C22.5526 47.9952 22.7591 48.7058 22.9427 49.2121C23.0646 49.5498 23.1686 49.7881 23.3617 49.9593C23.556 50.1315 23.8363 50.2319 24.2905 50.3135C24.4027 50.3333 24.4772 50.4404 24.457 50.5528C24.4369 50.6643 24.3298 50.7395 24.2177 50.7197C23.6614 50.6193 23.3254 50.479 23.0881 50.2682C22.8491 50.0563 22.7057 49.7693 22.5547 49.3524C22.3741 48.8546 22.1716 48.155 21.6993 47.1553Z" fill="#3A383D"/>
<path fill-rule="evenodd" clip-rule="evenodd" d="M22.6848 47.4176C22.6516 47.3085 22.713 47.1937 22.8218 47.1608C22.9309 47.1266 23.0463 47.1883 23.0796 47.2974C23.283 47.9628 23.3478 48.3989 23.4123 48.7255C23.4965 49.1501 23.5828 49.3589 24.0766 49.703C24.1699 49.7682 24.1931 49.8974 24.1276 49.99C24.0625 50.0837 23.9339 50.1069 23.8406 50.0417C23.2179 49.607 23.1135 49.3422 23.0074 48.8047C22.9446 48.4882 22.8825 48.0655 22.6848 47.4176Z" fill="#3A383D"/>
<path fill-rule="evenodd" clip-rule="evenodd" d="M42.467 44.885C42.4204 44.9887 42.2982 45.0364 42.1941 44.9887C42.0904 44.9424 42.0437 44.8199 42.0904 44.7161C42.8934 42.9242 43.0461 43.0313 43.2264 42.8272C43.3016 42.7409 43.4321 42.7332 43.5174 42.8084C43.603 42.8846 43.6111 43.0148 43.5355 43.0998C43.3657 43.2928 43.2247 43.1934 42.467 44.885Z" fill="#3A383D"/>
<path fill-rule="evenodd" clip-rule="evenodd" d="M42.3683 43.8777C42.3183 43.9804 42.1945 44.0224 42.0921 43.9727C41.99 43.923 41.9474 43.7981 41.9977 43.6967C42.2824 43.1153 42.2844 43.1341 42.6617 42.5953C42.7272 42.5017 42.8558 42.4795 42.9494 42.5446C43.0424 42.6098 43.0652 42.739 42.9998 42.8327C42.6413 43.3436 42.6389 43.3248 42.3683 43.8777Z" fill="#3A383D"/>
<path fill-rule="evenodd" clip-rule="evenodd" d="M57.3926 39.6522C57.3026 39.6546 57.218 39.5972 57.1905 39.5065C57.1576 39.3974 57.219 39.2816 57.3281 39.2484L57.4057 39.2373L57.4913 39.2497C57.5534 39.2662 57.6437 39.3102 57.7501 39.3796C58.2295 39.6908 59.1654 40.5616 59.2708 40.66C59.3541 40.7372 59.3588 40.8684 59.2809 40.951C59.2033 41.0349 59.0727 41.0393 58.9892 40.9611C58.8999 40.8782 58.1952 40.2206 57.7088 39.8553C57.5853 39.7627 57.4285 39.6734 57.3926 39.6522Z" fill="#3A383D"/>
<path fill-rule="evenodd" clip-rule="evenodd" d="M57.892 39.2862C57.79 39.2355 57.7484 39.1119 57.7987 39.0092C57.8494 38.9078 57.9733 38.8659 58.0753 38.9166C58.69 39.221 58.6712 39.2267 59.1489 39.7064C59.2291 39.787 59.2291 39.9173 59.1485 39.9978C59.0676 40.0784 58.9371 40.0784 58.8565 39.9978C58.4271 39.5665 58.4446 39.5597 57.892 39.2862Z" fill="#3A383D"/>
<path fill-rule="evenodd" clip-rule="evenodd" d="M52.5695 56.2345C52.4655 56.2808 52.3433 56.2335 52.2969 56.1298C52.251 56.026 52.2979 55.9035 52.402 55.8572C52.6639 55.7414 52.7636 55.695 55.8207 54.7779C55.9298 54.746 56.045 54.8078 56.0775 54.9169C56.1104 55.025 56.0483 55.1411 55.9392 55.173C52.9264 56.0767 52.8277 56.1197 52.5695 56.2345Z" fill="#3A383D"/>
<path fill-rule="evenodd" clip-rule="evenodd" d="M53.772 56.4531C53.6632 56.4863 53.5478 56.4246 53.5149 56.3151C53.4816 56.207 53.5434 56.0912 53.6522 56.058L54.4152 55.8264C54.5239 55.7931 54.6394 55.8549 54.6727 55.9643C54.7056 56.0724 54.6441 56.1883 54.535 56.2215L53.772 56.4531Z" fill="#3A383D"/>
<path fill-rule="evenodd" clip-rule="evenodd" d="M20.7078 17.2883C20.8773 17.0399 21.216 16.9771 21.4634 17.1459C21.7108 17.3158 21.7743 17.6545 21.6048 17.9016C21.5547 17.9744 21.5719 18.0584 21.5829 18.1963C21.5984 18.3907 21.6373 18.6388 21.6904 18.9731C21.9019 20.3052 22.3369 22.9236 22.5642 28.6089C22.5763 28.909 22.3426 29.1618 22.0428 29.1738C21.7431 29.1859 21.49 28.9519 21.4779 28.6518C21.216 22.0951 20.6742 19.664 20.5302 18.5659C20.4416 17.8929 20.5107 17.575 20.7078 17.2883Z" fill="#3A383D"/>
<path fill-rule="evenodd" clip-rule="evenodd" d="M21.1268 18.13C20.8314 18.1817 20.5491 17.9843 20.4967 17.6896C20.4443 17.3938 20.6417 17.1115 20.9371 17.0595C21.7596 16.9138 21.8529 17.043 22.6639 17.0783C22.9459 17.0904 23.1715 17.3166 23.1836 17.5979C23.4169 23.0207 23.5905 22.9875 23.6761 28.3891C23.6801 28.6483 23.4988 28.8759 23.244 28.9286L22.1319 29.1626C21.8381 29.2243 21.5498 29.0357 21.488 28.7423C21.4266 28.4485 21.6149 28.1595 21.9086 28.0987L22.5814 27.9578C22.4968 23.1708 22.334 22.9103 22.1184 18.1199C21.8113 18.0793 21.6226 18.0417 21.1268 18.13Z" fill="#3A383D"/>
<path fill-rule="evenodd" clip-rule="evenodd" d="M21.9041 27.3123C21.889 27.0793 21.8672 26.7483 21.8511 26.5056C21.7822 25.4683 21.466 23.3011 21.0313 18.1972C21.0058 17.8981 21.228 17.6356 21.5268 17.6104C21.8255 17.5849 22.0891 17.8068 22.1146 18.1055C22.5503 23.2205 22.8665 25.3931 22.9357 26.4338C22.9602 26.8024 23.0021 27.1985 23.0092 27.46C23.0142 27.6443 22.9974 27.7866 22.9743 27.8682L22.8994 28.0384L22.7578 28.1928L22.6275 28.2666L22.4711 28.3063L22.2938 28.2955L22.1119 28.2237L21.9685 28.1055L21.8578 27.9608C21.7248 27.7534 21.7507 27.4899 21.9041 27.3123Z" fill="#3A383D"/>
<path fill-rule="evenodd" clip-rule="evenodd" d="M31.8662 10.4684C31.8353 10.1703 32.0525 9.90344 32.3509 9.87255C32.6494 9.84167 32.9166 10.0589 32.9471 10.357C33.6477 17.141 33.68 17.1091 33.8223 23.9542C33.8287 24.2543 33.5903 24.5024 33.2902 24.5091C32.9904 24.5148 32.7417 24.2765 32.7357 23.9774C32.594 17.1776 32.5618 17.2075 31.8662 10.4684Z" fill="#3A383D"/>
<path fill-rule="evenodd" clip-rule="evenodd" d="M34.0473 24.7532C33.9644 24.7619 33.8778 24.7508 33.7949 24.7176C33.5159 24.6075 33.3793 24.2919 33.4894 24.0126L33.619 23.8129L33.8291 23.6773L33.8808 23.6638C33.8933 23.3815 33.906 22.9864 33.902 22.5903C33.8728 19.4563 33.4955 12.876 33.3696 10.7474C33.2202 10.7695 33.1047 10.786 33.0292 10.797C32.8966 10.9098 32.7133 10.9562 32.5337 10.9065C32.2447 10.8269 32.0748 10.5268 32.1544 10.2378L32.2071 10.0998L32.3017 9.96183L32.4122 9.86583L32.5193 9.80607C32.6253 9.75773 32.9083 9.72349 33.7895 9.58116C33.9413 9.55565 34.0963 9.5966 34.2162 9.69261C34.336 9.78862 34.4099 9.93095 34.4193 10.0844C34.4737 10.9891 34.9557 19.0104 34.9893 22.5792C34.9987 23.5813 34.9473 24.2688 34.8782 24.443L34.7486 24.6427L34.5388 24.7783L34.4099 24.8116L34.2622 24.8149C34.2145 24.8092 34.1229 24.7807 34.0473 24.7532ZM34.4435 24.5192C34.4653 24.4883 34.4844 24.4527 34.5002 24.4121C34.4851 24.4507 34.4659 24.487 34.4435 24.5192Z" fill="#3A383D"/>
<path fill-rule="evenodd" clip-rule="evenodd" d="M32.3498 10.5104C32.3132 10.2133 32.525 9.94203 32.8228 9.90443C33.1202 9.86818 33.3918 10.08 33.4287 10.3778C34.2314 16.8862 33.9658 16.8697 34.3082 23.4211C34.324 23.7212 34.0934 23.9774 33.794 23.9928C33.4945 24.0083 33.2384 23.7776 33.223 23.4785C32.8822 16.9644 33.1478 16.9812 32.3498 10.5104Z" fill="#3A383D"/>
<path fill-rule="evenodd" clip-rule="evenodd" d="M33.8772 23.8438C33.9417 23.8438 34.0206 23.8405 34.0921 23.8307C34.3895 23.7918 34.6624 24.0026 34.701 24.2997C34.7396 24.5975 34.5295 24.8701 34.232 24.9087C33.6808 24.9805 33.3435 24.8878 33.1444 24.7408L33.0037 24.6119L32.8977 24.4561L32.8298 24.295L32.7936 24.1372C32.7604 23.9264 32.7859 23.633 32.8617 23.249C32.9201 22.9556 33.2065 22.7636 33.5009 22.822C33.795 22.8804 33.9866 23.1664 33.9282 23.4608C33.9021 23.5921 33.8859 23.7411 33.8772 23.8438Z" fill="#3A383D"/>
<path fill-rule="evenodd" clip-rule="evenodd" d="M46.2682 26.0042C46.2 25.9116 46.1604 25.7981 46.1614 25.6756C46.2608 14.7907 46.2494 14.6625 46.1366 13.7125C46.1161 13.5392 46.1796 13.367 46.3075 13.2492C46.4354 13.131 46.6119 13.0814 46.7825 13.1156L48.3532 13.4288C48.6167 13.4818 48.8023 13.7192 48.7896 13.9874C48.6869 16.1855 48.4915 19.1363 48.4119 24.0555C48.3961 25.03 48.4304 24.9944 48.2884 25.9757C48.2518 26.2261 48.0464 26.4191 47.7932 26.4389L46.8536 26.5131C46.5545 26.5373 46.2927 26.3134 46.2689 26.0143C46.2689 26.0109 46.2685 26.0076 46.2682 26.0042ZM47.2511 25.3919C47.2639 25.3909 47.2712 25.3895 47.2712 25.3895C47.3333 24.8887 47.3132 24.7705 47.325 24.038C47.3991 19.4417 47.5744 16.5595 47.6811 14.4033L47.283 14.3238C47.3317 15.2664 47.3243 17.3517 47.2511 25.3919Z" fill="#3A383D"/>
<path fill-rule="evenodd" clip-rule="evenodd" d="M46.7972 14.3075C46.7871 14.0074 47.0224 13.7557 47.3222 13.7459C47.6223 13.7358 47.8734 13.9722 47.8835 14.2709C48.0658 19.7907 47.9926 19.7444 48.0171 25.2266C48.0184 25.5267 47.7761 25.7705 47.4763 25.7728C47.1762 25.7738 46.9315 25.5311 46.9301 25.231C46.9056 19.7652 46.9788 19.8116 46.7972 14.3075Z" fill="#3A383D"/>
<path fill-rule="evenodd" clip-rule="evenodd" d="M38.9518 14.9885C38.9132 14.6908 39.1237 14.4182 39.4211 14.3796C39.7186 14.341 39.9915 14.5514 40.0297 14.8485C40.6273 19.462 40.8002 19.7721 41.0311 24.3661C41.0462 24.6662 40.8153 24.921 40.5158 24.9365C40.2161 24.9519 39.9606 24.7203 39.9458 24.4212C39.7165 19.8671 39.544 19.5613 38.9518 14.9885Z" fill="#3A383D"/>
<path fill-rule="evenodd" clip-rule="evenodd" d="M39.5091 15.1982C39.2097 15.2103 38.9562 14.9763 38.9438 14.6772C38.9317 14.3771 39.165 14.1243 39.4648 14.1122L40.6015 14.0649C40.8972 14.0528 41.1486 14.2801 41.1661 14.5758C41.4101 18.6653 41.7371 21.1041 41.82 22.5254C41.8603 23.2183 41.8378 23.6973 41.7472 24.0206C41.5921 24.5745 40.9895 24.8679 40.5682 24.931C40.2718 24.9749 39.9949 24.7708 39.9506 24.4741C39.9062 24.1773 40.1114 23.9004 40.4081 23.8561C40.4648 23.8474 40.5337 23.8296 40.5991 23.7987C40.637 23.7812 40.6881 23.7712 40.7005 23.7282C40.7965 23.3838 40.7616 22.8198 40.6864 21.9295C40.5676 20.5247 40.3181 18.386 40.1137 15.1727L39.5091 15.1982Z" fill="#3A383D"/>
<path fill-rule="evenodd" clip-rule="evenodd" d="M25.7484 12.1787C25.7212 11.8796 25.9417 11.6148 26.2405 11.5883C26.5393 11.5607 26.8038 11.7816 26.831 12.0804C27.4507 18.9044 27.3681 19.0578 28.111 25.8851C28.1432 26.1832 27.9273 26.4514 27.6293 26.4843C27.3308 26.5165 27.0626 26.3014 27.03 26.0023C26.2865 19.1659 26.3691 19.0128 25.7484 12.1787Z" fill="#3A383D"/>
<path fill-rule="evenodd" clip-rule="evenodd" d="M26.783 12.6722C26.6924 12.7276 26.5846 12.7571 26.4708 12.7507C26.1714 12.7353 25.9414 12.4782 25.9579 12.1791L25.9924 11.9991L26.1062 11.8061L26.22 11.7067L26.3708 11.6339C26.4614 11.604 26.7269 11.5929 27.5239 11.5422C27.82 11.5224 28.0764 11.7443 28.1006 12.0401C28.6518 18.8197 28.9956 18.7358 29.5632 25.5279C29.5827 25.7609 29.4508 25.9804 29.2359 26.0721C29.0224 26.1637 27.9989 26.3524 27.7854 26.444C27.5098 26.5618 27.1899 26.4339 27.0717 26.158C26.9535 25.8834 27.0814 25.5632 27.357 25.4453C27.5064 25.3802 28.0549 25.2687 28.4423 25.1761C27.9119 18.9987 27.5752 18.767 27.061 12.6581C26.9438 12.6645 26.8498 12.6702 26.783 12.6722Z" fill="#3A383D"/>
<path fill-rule="evenodd" clip-rule="evenodd" d="M28.9112 25.0027C29.0274 25.2464 28.9461 25.5442 28.7125 25.6932C28.4597 25.8543 28.1233 25.7805 27.9619 25.5277C27.9058 25.4394 27.8165 25.1427 27.7658 24.7113C27.6208 23.4753 27.5134 20.774 27.4959 20.6061C27.0172 15.9782 26.2935 16.0974 26.18 12.767C26.1699 12.4669 26.4049 12.2151 26.7047 12.2054C27.0045 12.1953 27.2562 12.4303 27.2663 12.7308C27.3788 16.0289 28.1029 15.9098 28.5772 20.4937C28.5923 20.6414 28.6769 22.7294 28.7947 24.0769C28.8313 24.4948 28.9018 24.9406 28.9112 25.0027Z" fill="#3A383D"/>
<path fill-rule="evenodd" clip-rule="evenodd" d="M40.6364 15.7033C40.6405 15.763 40.6431 15.8281 40.6421 15.8886C40.6374 16.189 40.39 16.4284 40.0899 16.423C39.7901 16.4183 39.5505 16.1712 39.5555 15.8711C39.5588 15.667 39.526 15.5401 39.532 15.4461L39.5713 15.2521L39.6857 15.0456L39.8643 14.8855C39.9258 14.8449 40.0073 14.8029 40.1195 14.762C40.4011 14.6582 40.7133 14.8039 40.8164 15.0852C40.8999 15.3149 40.82 15.5633 40.6364 15.7033Z" fill="#3A383D"/>
<path fill-rule="evenodd" clip-rule="evenodd" d="M21.9717 17.672C21.9271 17.6884 21.8791 17.6962 21.8294 17.6952C21.6528 17.6895 21.4302 17.579 21.2409 17.3387C20.9807 17.0077 20.731 16.3994 20.6571 15.9845C20.5709 15.5014 20.6209 15.2221 20.729 14.8834C20.8582 14.4782 21.0935 13.9663 21.2255 12.6389C21.2449 12.4412 21.4067 12.2892 21.6045 12.2801C21.8022 12.2724 21.9761 12.4113 22.012 12.6057C22.2571 13.9398 22.6162 14.6142 22.7999 15.1879C23.014 15.8576 23.0429 16.4118 22.5202 17.4964C22.4249 17.6938 22.1872 17.7767 21.9895 17.6817C21.9835 17.6784 21.9774 17.675 21.9717 17.672ZM21.9173 16.9016C22.2604 16.0895 22.1523 15.6988 21.9187 15.0821C21.8509 14.9042 21.7747 14.7102 21.6954 14.4883C21.6474 14.6518 21.6004 14.7884 21.5585 14.9109C21.4453 15.2399 21.3665 15.4329 21.4396 15.8455C21.487 16.1127 21.6306 16.4857 21.7935 16.7438C21.8294 16.8002 21.8881 16.8687 21.9173 16.9016Z" fill="#3A383D"/>
<path fill-rule="evenodd" clip-rule="evenodd" d="M21.7872 17.9433C21.856 17.9225 21.9651 18.0359 22.0887 18.4576L22.0266 17.7382L22.039 17.7358L22.1078 18.5251C22.1078 18.5251 22.1105 18.5251 22.1159 18.5251L22.0947 18.5271L22.0944 18.5237H22.0941C22.0944 18.5251 22.0944 18.5261 22.0947 18.5271C21.8755 18.5271 21.6973 18.3485 21.6973 18.1289C21.6973 18.0339 21.7312 17.9456 21.7872 17.9433ZM22.1159 18.5251L22.176 18.5183C22.1471 18.5237 22.1266 18.5251 22.1159 18.5251Z" fill="#3A383D"/>
<path fill-rule="evenodd" clip-rule="evenodd" d="M26.955 12.2458C26.9013 12.2569 26.8445 12.2582 26.7875 12.2448C26.6609 12.2173 26.4152 12.0793 26.1795 11.8154C25.7357 11.3179 25.2658 10.3756 25.679 9.34708C26.1708 8.12314 26.3386 8.20606 26.668 6.91733C26.7109 6.74949 26.8576 6.62797 27.0305 6.61823C27.2037 6.60917 27.3628 6.71189 27.4246 6.87403C27.7878 7.82975 28.1071 8.57566 28.2739 9.22556C28.5529 10.3139 28.4488 11.1669 27.5314 12.2206C27.3873 12.3861 27.1359 12.4039 26.9708 12.2602C26.965 12.2559 26.96 12.2505 26.955 12.2458ZM27.0809 11.5187C27.6408 10.7983 27.6999 10.188 27.5038 9.42328C27.4092 9.05369 27.2625 8.65287 27.0862 8.19834C26.9123 8.59681 26.7284 8.86805 26.4165 9.64384C26.1809 10.2286 26.394 10.7704 26.6424 11.1216C26.764 11.2938 26.9614 11.4569 26.9855 11.4757C27.0198 11.4858 27.0517 11.4999 27.0809 11.5187Z" fill="#3A383D"/>
<mask id="mask0_2620_1294" style="mask-type:luminance" maskUnits="userSpaceOnUse" x="31" y="4" width="5" height="7">
<path d="M31.6484 4.61133H35.0859V10.8361H31.6484V4.61133Z" fill="white"/>
</mask>
<g mask="url(#mask0_2620_1294)">
<path fill-rule="evenodd" clip-rule="evenodd" d="M33.3646 10.1971C33.416 10.3042 33.42 10.4321 33.364 10.5459C33.2673 10.7433 33.0286 10.8239 32.8319 10.7279C32.3797 10.505 31.9581 9.98765 31.7694 9.37165C31.5797 8.75263 31.622 8.04633 32.0541 7.47028C32.9312 6.30173 33.1189 6.39673 33.4506 4.9556C33.4905 4.78339 33.6392 4.65784 33.8158 4.64811C33.9924 4.63804 34.1545 4.74647 34.2129 4.91331C34.5124 5.76597 34.7829 6.45179 34.9222 7.03992C35.0837 7.72105 35.0757 8.28702 34.8098 8.82447C34.5913 9.26456 34.1894 9.6919 33.5123 10.1377C33.4663 10.1686 33.416 10.1884 33.3646 10.1971ZM32.8967 9.79429C32.9004 9.66975 32.9628 9.54822 33.0753 9.47437C33.6003 9.12794 33.9283 8.81339 34.0974 8.47132C34.2834 8.09601 34.2616 7.69889 34.1488 7.22422C34.083 6.94526 33.9857 6.64381 33.8692 6.3118C33.6332 6.83918 33.3317 7.09196 32.6902 7.94831C32.42 8.30784 32.4106 8.75162 32.5294 9.13901C32.6066 9.39045 32.7369 9.62342 32.8967 9.79429Z" fill="#3A383D"/>
</g>
<path fill-rule="evenodd" clip-rule="evenodd" d="M40.436 14.42C40.398 14.6332 40.1959 14.7765 39.9818 14.7423C39.5944 14.6805 39.2772 14.4046 39.0522 14.0571C38.7689 13.6191 38.634 13.085 38.6175 12.9799C38.5081 12.2924 38.6118 11.9802 38.8642 11.4616C39.0724 11.0346 39.4007 10.4377 39.7884 9.19059C39.8398 9.0261 39.9915 8.91365 40.1637 8.91163C40.3363 8.91029 40.4903 9.01973 40.5447 9.18287C40.9063 10.2645 41.2725 10.7677 41.5095 11.146C41.8173 11.6371 41.9567 11.9671 41.7609 12.7207C41.6122 13.2944 41.5367 13.2495 40.8009 14.2589C40.7139 14.3781 40.5729 14.4355 40.436 14.42ZM40.0885 13.9544C40.0989 13.897 40.1221 13.842 40.1583 13.7913C40.7747 12.9447 40.867 13.0021 40.9915 12.522C41.11 12.0641 41.0221 11.8654 40.8358 11.5676C40.6676 11.2994 40.4407 10.9718 40.1939 10.4498C39.9425 11.1007 39.7303 11.4982 39.5789 11.8093C39.4051 12.1669 39.3272 12.382 39.4024 12.8554C39.4145 12.9292 39.5165 13.3112 39.7196 13.6244C39.8153 13.7735 39.9274 13.9192 40.0885 13.9544Z" fill="#3A383D"/>
<path fill-rule="evenodd" clip-rule="evenodd" d="M48.0125 13.7857C48.036 13.8629 48.036 13.9478 48.0075 14.0297C47.9357 14.2372 47.7091 14.3463 47.5019 14.2744C47.0796 14.1287 46.7574 13.8078 46.5425 13.3973C46.2538 12.8454 46.1655 12.1317 46.2575 11.5677C46.3384 11.0722 46.4808 10.8238 46.7248 10.5184C47.0192 10.1498 47.4979 9.67945 48.267 8.28028C48.3455 8.13795 48.5033 8.05738 48.6651 8.07719C48.8269 8.09834 48.9599 8.21516 49.0001 8.37293C49.218 9.22157 49.4174 9.85603 49.5299 10.3804C49.6588 10.9806 49.6759 11.4529 49.5248 11.9165C49.3425 12.4738 48.9008 13.0287 48.0125 13.7857ZM47.3999 13.2626C48.1925 12.5993 48.6124 12.1491 48.7692 11.6691C48.8796 11.3314 48.8471 10.986 48.7527 10.5469C48.6873 10.2414 48.5909 9.89698 48.4788 9.49314C48.0558 10.1696 47.7403 10.5435 47.5063 10.8218C47.2539 11.1206 47.1109 11.2753 47.042 11.6956C46.9749 12.1062 47.0367 12.6272 47.2472 13.0287C47.2911 13.1126 47.3418 13.1921 47.3999 13.2626Z" fill="#3A383D"/>
<path fill-rule="evenodd" clip-rule="evenodd" d="M16.3993 56.217C16.027 56.496 15.5081 56.5403 15.0831 56.2885L14.6695 55.9367L14.4137 55.5392L14.2324 54.9202L14.2388 54.2804L14.3922 53.7386L14.7014 53.2186L15.1714 52.7762C15.3429 52.656 15.5416 52.5509 15.7716 52.4707L16.4037 52.3535L17.0257 52.4287L17.6045 52.6889L18.0942 53.136C18.5484 53.7141 18.813 54.6587 18.0963 55.8561C17.7606 56.4167 17.0324 56.5997 16.4715 56.2643C16.4467 56.2489 16.4225 56.2335 16.3993 56.217Z" fill="#3A383D"/>
<path fill-rule="evenodd" clip-rule="evenodd" d="M28.2042 56.1474C28.1766 56.229 28.1397 56.3082 28.093 56.3844C27.7527 56.943 27.0232 57.1206 26.4649 56.7795L26.1034 56.4583L25.8936 56.0823L25.8066 55.6795L25.8348 55.2139C25.9607 54.5526 26.6147 53.6069 27.3824 53.2927L27.7647 53.1799L28.2028 53.1514L28.661 53.2383L29.0857 53.4404C29.4429 53.6687 29.84 54.0903 30.132 54.8772C30.3596 55.4895 30.0468 56.1726 29.4338 56.3999C28.9957 56.5634 28.5217 56.4496 28.2042 56.1474Z" fill="#3A383D"/>
<path fill-rule="evenodd" clip-rule="evenodd" d="M41.0661 55.3355C40.9654 55.7306 40.6626 56.0639 40.242 56.1831C39.6132 56.3617 38.9573 55.9965 38.7787 55.3674C38.6038 54.7527 38.6538 54.2287 38.8059 53.8195L38.9781 53.465L39.2178 53.1494L39.5162 52.8889L39.8589 52.6969L40.2292 52.5791L40.6112 52.5361L40.9909 52.5637L41.3571 52.6583C41.7684 52.804 42.199 53.09 42.5639 53.5731C42.9577 54.0964 42.8537 54.839 42.3316 55.2328C41.9537 55.5188 41.4595 55.5419 41.0661 55.3355Z" fill="#3A383D"/>
<path fill-rule="evenodd" clip-rule="evenodd" d="M52.8143 53.0037C52.8878 53.6526 52.4199 54.2397 51.7703 54.3135C51.1207 54.3874 50.5336 53.9198 50.4598 53.2695C50.1365 50.4128 53.4135 49.0985 55.1783 50.9512C55.6294 51.4259 55.6113 52.1762 55.1376 52.6263C54.6643 53.0775 53.914 53.0591 53.4629 52.5854C53.204 52.3141 52.767 52.5844 52.8143 53.0037Z" fill="#3A383D"/>
<path fill-rule="evenodd" clip-rule="evenodd" d="M34.865 57.547C34.8728 57.5359 34.8781 57.5272 34.8801 57.5225C35.1651 56.9343 35.8741 56.6883 36.4626 56.9729C37.0511 57.2589 37.2975 57.9673 37.0121 58.5554C36.9638 58.6558 36.7171 59.1469 36.3082 59.5131L35.9772 59.7615L35.5404 59.967L35.1903 60.0486L34.8086 60.063C34.3115 60.0331 33.676 59.8146 33.012 59.0287C32.59 58.5302 32.6528 57.782 33.1523 57.3593C33.6518 56.9377 34.3998 57.0008 34.8217 57.4993C34.8352 57.5161 34.8499 57.5315 34.865 57.547Z" fill="#3A383D"/>
<path fill-rule="evenodd" clip-rule="evenodd" d="M48.083 55.5482C48.3546 54.9722 49.0371 54.7127 49.6252 54.9665C50.2251 55.227 50.5014 55.9242 50.2415 56.5247C49.8306 57.4738 49.3046 57.8655 48.8383 58.0189L48.4959 58.0948L48.1612 58.1038L47.5879 57.9803C47.2414 57.8534 46.8443 57.5993 46.4012 57.2529C45.8866 56.849 45.7959 56.1041 46.1991 55.5888C46.6026 55.0746 47.3479 54.9842 47.8625 55.3871C47.9296 55.4398 48.0078 55.4962 48.083 55.5482Z" fill="#3A383D"/>
<path fill-rule="evenodd" clip-rule="evenodd" d="M60.538 54.3066C60.4255 54.3354 59.489 54.5526 58.4225 53.8665C57.8726 53.5123 57.7135 52.7785 58.0673 52.229C58.4211 51.6794 59.1546 51.5203 59.7045 51.8735C60.058 52.1007 60.3034 51.9651 60.3141 51.9651C60.9677 51.9829 61.484 52.5277 61.4662 53.1813C61.4511 53.7362 61.0567 54.1921 60.538 54.3066Z" fill="#3A383D"/>
<path fill-rule="evenodd" clip-rule="evenodd" d="M22.1377 57.9505C22.1535 57.9395 22.1686 57.9274 22.1834 57.9153C22.696 57.5101 23.4419 57.5964 23.8478 58.1093C24.2536 58.6213 24.1667 59.3675 23.6544 59.7734C22.1633 60.9543 21.1938 60.6673 20.6802 60.3209L20.2941 59.9697L20.0531 59.5991C19.9004 59.2967 19.8218 58.9479 19.7963 58.6612C19.7772 58.447 19.7859 58.2661 19.7986 58.158L19.9145 57.7431L20.1699 57.3889L20.4898 57.1704C21.0827 56.8945 21.788 57.1516 22.0639 57.7441C22.0955 57.8116 22.12 57.8811 22.1377 57.9505ZM21.8991 59.0043C21.791 59.1335 21.6533 59.2426 21.4902 59.3178C21.6171 59.2591 21.7658 59.1664 21.8991 59.0043Z" fill="#3A383D"/>
<path fill-rule="evenodd" clip-rule="evenodd" d="M11.6229 56.3141C11.9318 55.737 12.6501 55.5195 13.2265 55.8287C13.8029 56.1375 14.0201 56.8559 13.7116 57.4319L13.4692 57.8844C13.1607 58.4615 12.442 58.6777 11.8656 58.3699C11.2892 58.061 11.072 57.3426 11.3805 56.7652L11.6229 56.3141Z" fill="#3A383D"/>
</svg>
