<svg width="70" height="71" viewBox="0 0 70 71" fill="none" xmlns="http://www.w3.org/2000/svg">
<mask id="mask0_2620_1222" style="mask-type:luminance" maskUnits="userSpaceOnUse" x="18" y="7" width="34" height="57">
<path d="M18.7969 7.55859H51.2031V63.4727H18.7969V7.55859Z" fill="white"/>
</mask>
<g mask="url(#mask0_2620_1222)">
<path d="M44.6045 7.55859H25.3965C21.787 7.55859 18.8223 10.5234 18.8223 14.1332V56.867C18.8223 60.4764 21.787 63.4415 25.3965 63.4415H44.6045C48.2139 63.4415 51.1787 60.4764 51.1787 56.867V14.0685C51.1787 10.459 48.2139 7.55859 44.6045 7.55859ZM48.923 56.867C48.923 59.2517 46.9892 61.1854 44.6045 61.1854H25.3965C23.0117 61.1854 21.078 59.2517 21.078 56.867V14.0685C21.078 11.6837 23.0117 9.75 25.3965 9.75H44.6045C46.9892 9.75 48.923 11.6837 48.923 14.0685V56.867Z" fill="#3A383D"/>
</g>
<path d="M37.0611 51.8394H32.936C30.9376 51.8394 29.3262 53.4507 29.3262 55.4488C29.3262 57.4469 30.9376 59.0583 32.936 59.0583H37.0611C39.0592 59.0583 40.6706 57.4469 40.6706 55.4488C40.6706 53.4507 39.0592 51.8394 37.0611 51.8394ZM37.0611 56.8025H32.936C32.1623 56.8025 31.5823 56.2225 31.5823 55.4488C31.5823 54.6755 32.1623 54.0954 32.936 54.0954H37.0611C37.8345 54.0954 38.4145 54.6755 38.4145 55.4488C38.4145 56.2225 37.8345 56.8025 37.0611 56.8025Z" fill="#3A383D"/>
<path d="M40.9281 12.3926H29.0684C28.4237 12.3926 27.9727 12.9083 27.9727 13.4883C27.9727 14.133 28.4883 14.584 29.0684 14.584H40.9281C41.5728 14.584 42.0238 14.0683 42.0238 13.4883C42.0885 12.9083 41.5728 12.3926 40.9281 12.3926Z" fill="#3A383D"/>
<path d="M13.5998 51.7106C13.2775 51.195 13.2775 50.5506 13.5998 50.0992L15.0179 47.7788C15.7912 46.5545 15.7265 45.0074 15.0179 43.7827L13.5998 41.4623C13.2775 40.9466 13.2775 40.3022 13.5998 39.8509L15.0179 37.5305C15.7912 36.3058 15.7912 34.7591 15.0179 33.5343L13.5998 31.2139C13.2775 30.6982 13.2775 30.0536 13.5998 29.6025L15.0179 27.2821C15.7912 26.0574 15.7912 24.5107 15.0179 23.286L13.5998 20.9656C13.2775 20.4499 13.2775 19.8052 13.5998 19.3542L15.8556 15.6157C16.1779 15.1 15.9846 14.391 15.4689 14.0687C14.9532 13.7463 14.2442 13.94 13.9218 14.4553L11.7304 18.0651C10.9571 19.2895 10.9571 20.8366 11.7304 22.0613L13.1485 24.3817C13.4708 24.8974 13.4708 25.5417 13.1485 25.9931L11.7304 28.3135C10.9571 29.5382 10.9571 31.0849 11.7304 32.3096L13.1485 34.63C13.4708 35.1457 13.4708 35.7901 13.1485 36.2414L11.7304 38.5619C10.9571 39.7866 10.9571 41.3333 11.7304 42.558L13.1485 44.8784C13.4708 45.3941 13.4708 46.0388 13.1485 46.4898L11.7304 48.8102C11.0214 50.0349 11.0214 51.582 11.7304 52.742L13.9865 56.4805C14.1798 56.8028 14.5665 56.9962 14.9532 56.9962C15.1465 56.9962 15.3399 56.9318 15.5332 56.8028C16.0489 56.4805 16.2422 55.7714 15.9202 55.2558L13.5998 51.7106Z" fill="#3A383D"/>
<path d="M9.15265 25.7351C9.475 25.2194 9.28166 24.5107 8.76597 24.1884C8.25028 23.866 7.54126 24.0594 7.21891 24.5751L4.96283 28.3135C4.18947 29.5382 4.18947 31.0849 4.96283 32.3097L6.38088 34.6301C6.70323 35.1458 6.70323 35.7901 6.38088 36.2415L4.96283 38.5619C4.18947 39.7866 4.18947 41.3333 4.96283 42.558L7.21891 46.2965C7.41225 46.6188 7.79893 46.8122 8.18561 46.8122C8.37895 46.8122 8.57263 46.7478 8.76597 46.6188C9.28166 46.2965 9.475 45.5874 9.15265 45.0718L6.89657 41.3333C6.57422 40.818 6.57422 40.1733 6.89657 39.7219L8.31462 37.4015C9.08797 36.1771 9.08797 34.6301 8.31462 33.4054L6.89657 31.0849C6.57422 30.5693 6.57422 29.9249 6.89657 29.4736L9.15265 25.7351Z" fill="#3A383D"/>
<path d="M56.849 46.5544C56.5266 46.0387 56.5266 45.394 56.849 44.943L58.267 42.6226C59.0404 41.3979 59.0404 39.8509 58.267 38.6261L56.849 36.3057C56.5266 35.7904 56.5266 35.1457 56.849 34.6943L58.267 32.3739C59.0404 31.1496 59.0404 29.6025 58.267 28.3778L56.849 26.0574C56.5266 25.5417 56.5266 24.8973 56.849 24.446L58.267 22.1256C59.0404 20.9009 59.0404 19.3541 58.267 18.1294L56.0109 14.391C55.6889 13.8753 54.9799 13.6819 54.4642 14.0043C53.9485 14.3266 53.7552 15.0357 54.0775 15.5514L56.3333 19.2895C56.6556 19.8052 56.6556 20.4498 56.3333 20.9009L54.9799 23.2213C54.2062 24.446 54.2062 25.993 54.9799 27.2178L56.3979 29.5382C56.7199 30.0535 56.7199 30.6982 56.3979 31.1496L54.9799 33.47C54.2062 34.6943 54.2062 36.2414 54.9799 37.4661L56.3979 39.7865C56.7199 40.3022 56.7199 40.9466 56.3979 41.3979L54.9799 43.7183C54.2062 44.943 54.2062 46.4897 54.9799 47.7145L56.3979 50.0349C56.7199 50.5506 56.7199 51.1953 56.3979 51.6463L54.0775 55.4491C53.7552 55.9647 53.9485 56.6738 54.4642 56.9961C54.6576 57.1251 54.8509 57.1895 55.0442 57.1895C55.4309 57.1895 55.8176 56.9961 56.0109 56.6738L58.267 52.9353C58.976 51.7106 58.976 50.1639 58.267 49.0035L56.849 46.5544Z" fill="#3A383D"/>
<path d="M65.0347 38.6258L63.6166 36.3054C63.2943 35.7901 63.2943 35.1454 63.6166 34.694L65.0347 32.3736C65.808 31.1493 65.808 29.6022 65.0347 28.3775L62.7786 24.639C62.4563 24.1233 61.7472 23.93 61.2319 24.2523C60.7162 24.5747 60.5229 25.2837 60.8449 25.7994L63.101 29.5379C63.4233 30.0532 63.4233 30.6979 63.101 31.1493L61.6829 33.4697C60.9095 34.694 60.9095 36.2411 61.6829 37.4658L63.101 39.7862C63.4233 40.3019 63.4233 40.9462 63.101 41.3976L60.8449 45.1361C60.5229 45.6518 60.7162 46.3608 61.2319 46.6828C61.4252 46.8118 61.6186 46.8761 61.8119 46.8761C62.1986 46.8761 62.5853 46.6828 62.7786 46.3608L65.0347 42.6223C65.808 41.3329 65.808 39.8505 65.0347 38.6258Z" fill="#3A383D"/>
</svg>
