<svg width="70" height="71" viewBox="0 0 70 71" fill="none" xmlns="http://www.w3.org/2000/svg">
<path d="M27.8174 11.9451C31.1491 10.0872 35.8172 10.1641 41.8217 12.1758L41.7741 12.158C47.5686 14.5064 51.4559 17.7293 53.4363 21.8258C53.442 21.8376 53.4477 21.8493 53.454 21.8607C56.1745 26.988 57.1297 32.2513 56.3186 37.6507L56.3271 37.603C55.3268 42.7335 52.8365 46.547 48.8562 49.0428L48.8909 49.0222C44.2058 51.6611 39.0139 52.1624 33.3155 50.5261L33.3802 50.5478C27.094 48.1556 22.3196 44.3118 19.0571 39.0157L19.0526 39.0082C15.8683 33.9354 14.8503 28.9181 15.9991 23.9567L15.9875 24.0027C17.3605 19.0491 20.8438 15.2993 26.4375 12.7529C26.8916 12.546 27.1114 11.9629 26.9281 11.4498C26.7452 10.9371 26.2284 10.6889 25.7743 10.8958C19.6616 13.6782 15.8348 17.8478 14.2947 23.4045C14.2902 23.4195 14.2865 23.4348 14.283 23.4504C12.9951 29.0139 14.1026 34.5859 17.6055 40.1664L17.6011 40.159C21.0866 45.8171 26.1574 49.9126 32.8135 52.4455C32.8349 52.4537 32.8564 52.4608 32.8781 52.4672C39.0028 54.2257 44.604 53.6749 49.6827 50.8141C49.6944 50.8077 49.7061 50.8006 49.7174 50.7935C54.1638 48.0053 56.9446 43.7521 58.0593 38.0334C58.0625 38.0174 58.065 38.0017 58.0675 37.9857C58.9515 32.0997 57.9206 26.3817 54.9755 20.8318L54.9932 20.8667C52.7974 16.3243 48.591 12.7931 42.3736 10.2731C42.3578 10.267 42.3421 10.261 42.3263 10.2557C35.8774 8.09521 30.7792 8.05996 27.0319 10.1496C26.5929 10.3941 26.4126 10.9948 26.6295 11.4904C26.8465 11.9864 27.3781 12.1897 27.8174 11.9451Z" fill="#363435"/>
<path d="M26.9035 12.8321C27.7328 13.8899 28.3244 14.7739 28.6776 15.4839L28.6568 15.4394C28.7713 15.6989 28.8211 15.8773 28.8069 15.9745C28.8085 15.9634 28.8132 15.951 28.8211 15.9367C28.8107 15.9556 28.8006 15.9745 28.7911 15.9937C28.7019 16.1756 28.4711 16.348 28.0983 16.511L28.2071 16.4722C25.8906 17.1138 24.5144 17.5692 24.0786 17.8387C23.7749 18.0263 23.592 18.2841 23.5299 18.6113L23.961 17.9487C23.0931 18.502 22.6617 19.2864 22.6665 20.3018L22.6674 20.2448C22.6261 21.1509 22.9553 22.2529 23.6551 23.5503L23.6374 23.5164C24.1193 24.4948 25.1687 26.0692 26.7858 28.2397L26.7426 28.1766C26.8968 28.4205 27.0063 28.6619 27.0703 28.9005L27.0466 28.7894C27.0438 28.7734 27.0425 28.7609 27.0425 28.752C27.0432 28.873 26.9801 29.1041 26.854 29.4452L26.8732 29.3968L25.4453 32.7432C25.4005 32.8479 25.3725 32.9604 25.362 33.0761C25.3545 33.1587 25.3529 33.2456 25.357 33.3371C25.3674 33.5624 25.4172 33.8437 25.5062 34.1805C25.5122 34.204 25.5191 34.2268 25.5267 34.2496C25.8868 35.3227 26.1075 36.0732 26.1892 36.5015V36.5012C26.2479 36.8109 26.2712 37.0178 26.2583 37.1217C26.2598 37.1096 26.2636 37.0936 26.2699 37.0733L26.3384 36.9021C26.2986 36.9804 26.164 37.0007 25.9341 36.9633L26.0609 36.995C22.8654 35.9212 20.9409 35.3989 20.2875 35.4281C20.0257 35.4398 19.8072 35.5203 19.6315 35.6698L20.1001 35.4708C18.9996 35.5623 18.1813 36.4054 17.6458 38.0008C17.472 38.5178 17.7026 39.096 18.1608 39.2918C18.6186 39.488 19.1308 39.2277 19.3042 38.7104C19.5726 37.9111 19.8813 37.497 20.2301 37.4682C20.4 37.4539 20.5628 37.3849 20.6987 37.2691C20.5792 37.371 20.4656 37.424 20.3578 37.429C20.815 37.4087 22.5476 37.9036 25.555 38.9144C25.5964 38.9283 25.6389 38.9386 25.6818 38.9457C26.7086 39.1124 27.4408 38.7617 27.8792 37.894C27.9066 37.8395 27.9296 37.7822 27.9476 37.7227C27.9785 37.6213 28.0009 37.5123 28.0151 37.3966C28.0567 37.0594 28.0261 36.6208 27.9233 36.081V36.0807C27.823 35.5537 27.5771 34.7071 27.1854 33.54L27.2059 33.6091C27.1573 33.4246 27.1315 33.2993 27.1286 33.2331C27.1289 33.2441 27.1283 33.2594 27.1267 33.2794L27.0432 33.6123L28.4711 30.2659C28.478 30.2498 28.4843 30.2338 28.4903 30.2174C28.7092 29.6261 28.8179 29.1344 28.8164 28.7424C28.8157 28.6334 28.8075 28.5291 28.7911 28.4287C28.7852 28.3913 28.7773 28.3543 28.7675 28.318C28.6467 27.8701 28.4531 27.435 28.1863 27.0131C28.1727 26.9917 28.1582 26.9707 28.1431 26.9504C26.5995 24.8783 25.6143 23.4093 25.1877 22.543C25.182 22.5316 25.176 22.5203 25.17 22.5089C24.6601 21.5632 24.4163 20.843 24.439 20.3481C24.4397 20.3292 24.4403 20.3103 24.44 20.2911C24.439 20.06 24.5702 19.8603 24.8332 19.6926C25.0543 19.5516 25.2113 19.3102 25.2643 19.03C25.2132 19.3006 25.1019 19.4889 24.9307 19.595C25.2305 19.4095 26.4636 19.0172 28.6297 18.4173C28.6666 18.4069 28.7028 18.3941 28.7385 18.3785C29.5111 18.0409 30.0462 17.5692 30.343 16.9636L30.313 17.0205C30.4363 16.8037 30.5177 16.5652 30.5561 16.3056C30.634 15.7808 30.5303 15.1948 30.2449 14.5471C30.2383 14.5322 30.2313 14.5172 30.2238 14.5026C29.8088 13.6684 29.1447 12.6694 28.2314 11.5044C27.9069 11.0907 27.3462 11.0519 26.9795 11.4186C26.6127 11.785 26.5787 12.418 26.9035 12.8321Z" fill="#363435"/>
<path d="M49.905 17.5119C49.941 17.3724 49.9984 17.2787 50.0772 17.231C50.0627 17.2399 50.0368 17.2502 49.9999 17.262L50.0728 17.2424C48.2497 17.6415 47.0994 17.9613 46.6219 18.2019L46.668 18.1806C46.4223 18.286 46.2139 18.4184 46.0423 18.5779C45.7572 18.8428 45.5797 19.1672 45.5097 19.5513C45.5059 19.5727 45.5024 19.594 45.4999 19.6158C45.4349 20.1434 45.5396 20.7433 45.8143 21.4163L45.7342 20.9406C45.7251 21.1239 45.7613 21.3134 45.8436 21.5092H45.8433C45.9789 21.8328 46.5119 22.7674 47.4421 24.313L47.3945 24.2243C47.4797 24.4031 47.5251 24.5487 47.5314 24.6612L47.5301 24.6348C47.5377 24.8723 47.4841 25.1693 47.3699 25.526L47.4169 25.4053C46.0925 28.2814 45.4148 30.1235 45.3842 30.9314C45.3772 31.1069 45.3921 31.2689 45.4283 31.4167L45.4015 31.0432C45.3422 31.6634 45.4116 32.426 45.61 33.3311C45.6163 33.3603 45.6238 33.3888 45.6324 33.4172L46.8455 37.3906L46.8326 37.3443C46.8272 37.324 46.8253 37.3073 46.8266 37.2938C46.8165 37.3931 46.7276 37.5526 46.5595 37.7734C46.5519 37.7833 46.5447 37.7933 46.5371 37.8036C46.1782 38.3142 45.5428 38.5737 44.6308 38.5823L44.6595 38.5826C44.2811 38.5723 43.8424 38.4876 43.3436 38.3281L43.4199 38.3566C40.2891 37.0008 38.1876 36.2784 37.1148 36.189L37.1861 36.1979C35.2943 35.865 34.1698 36.4404 33.8134 37.9243L33.8336 37.8506C33.3262 39.4606 34.1956 41.1714 36.4422 42.9833L36.4519 42.9911C37.0722 43.4767 37.5131 43.7787 37.7742 43.8962V43.8965C37.8682 43.9385 37.9577 43.9681 38.0429 43.9845C38.0558 43.9869 38.0684 43.9891 38.0813 43.9909C39.2075 44.1518 40.3298 44.5061 41.4483 45.0533L41.4565 45.0572C42.4707 45.54 43.0629 45.8982 43.2332 46.1321L43.2329 46.1317C43.2319 46.1303 43.23 46.1278 43.2281 46.1242L43.1477 45.9651C43.1493 45.969 43.1503 45.9715 43.1509 45.9733C43.1345 45.9185 43.1402 45.8665 43.1676 45.8173C43.1638 45.8241 43.1562 45.8341 43.1449 45.8472L43.2663 45.7287L41.1298 47.4626C41.109 47.4793 41.0891 47.4968 41.0702 47.5156C40.765 47.8108 40.5603 48.1693 40.4562 48.5916L40.4808 48.5065C40.1185 49.5885 40.5663 50.8339 41.8242 52.2424C42.172 52.6316 42.7334 52.6291 43.0784 52.2364C43.4233 51.8436 43.4208 51.2095 43.073 50.8204C42.36 50.0218 42.0487 49.4867 42.1399 49.215C42.1493 49.1869 42.1575 49.1584 42.1645 49.1299C42.1724 49.0982 42.1922 49.0669 42.2244 49.0359L42.1648 49.0886L44.3016 47.3547C44.3451 47.3195 44.3858 47.2799 44.4227 47.2362C44.5176 47.1251 44.5993 47.0083 44.6674 46.8865V46.8862C44.9389 46.4005 44.9944 45.885 44.8336 45.3403V45.3399C44.8134 45.2722 44.7901 45.205 44.7633 45.138C44.7409 45.0825 44.7141 45.0291 44.6832 44.9789C44.6582 44.939 44.6318 44.8995 44.6031 44.86C44.2473 44.3718 43.4284 43.8225 42.1456 43.2119L42.1538 43.2158C40.8807 42.5931 39.5975 42.189 38.304 42.0042L38.3425 42.0106C38.38 42.0181 38.4096 42.0266 38.4314 42.0362L38.4317 42.0366C38.2955 41.975 37.9729 41.745 37.4629 41.3455L37.473 41.3537C35.9524 40.1271 35.2962 39.1833 35.5046 38.5221C35.5122 38.4979 35.5191 38.4733 35.5251 38.4488C35.6046 38.1184 36.0669 38.0279 36.913 38.1768C36.9366 38.181 36.9603 38.1839 36.9842 38.186C37.8833 38.2608 39.8167 38.9412 42.7844 40.2265C42.8094 40.2372 42.8349 40.2468 42.8604 40.255C43.5034 40.4604 44.0887 40.5704 44.6169 40.5846C44.6264 40.585 44.6362 40.585 44.6456 40.585C46.1227 40.5708 47.2164 40.0588 47.9265 39.0491L47.9041 39.0793C48.3094 38.5474 48.5377 38.0279 48.5891 37.5206C48.6146 37.2671 48.5966 37.0214 48.5351 36.7839C48.5314 36.7686 48.5269 36.753 48.5222 36.738L47.3094 32.7646L47.3318 32.8504C47.1839 32.1743 47.1281 31.6435 47.165 31.2575C47.1769 31.1322 47.1678 31.0054 47.1381 30.884C47.1514 30.9385 47.1574 30.983 47.1561 31.0175C47.1757 30.5056 47.7871 28.9425 48.9905 26.3289C49.0085 26.2901 49.0242 26.2495 49.0375 26.2082C49.2302 25.6079 49.3185 25.0599 49.3027 24.5636C49.3027 24.5547 49.3021 24.5458 49.3018 24.5373C49.2797 24.1332 49.1646 23.7127 48.9571 23.2766C48.9423 23.2459 48.9265 23.2164 48.9091 23.1875C48.0306 21.7278 47.5431 20.8829 47.4469 20.6529C47.4935 20.7643 47.5131 20.8979 47.5052 21.0542C47.5134 20.8904 47.486 20.727 47.4251 20.5785C47.2955 20.2609 47.2394 20.0316 47.2567 19.8913L47.2469 19.9554C47.2328 20.033 47.2072 20.0889 47.1697 20.1238C47.1914 20.1035 47.2343 20.0797 47.2987 20.0523C47.3141 20.0455 47.3292 20.0384 47.3444 20.0309C47.6982 19.8525 48.7202 19.5784 50.4105 19.2085C50.4348 19.2031 50.4591 19.1964 50.483 19.1889C50.6439 19.1372 50.7883 19.0728 50.9163 18.9955V18.9952C51.2746 18.778 51.5051 18.4704 51.6079 18.0723C51.7448 17.5415 51.4748 16.9854 51.0046 16.8308C50.5341 16.676 50.0419 16.9811 49.905 17.5119Z" fill="#363435"/>
<path d="M57.8299 51.6158C59.2433 50.0805 60.5091 48.1455 61.627 45.8102C61.632 45.7992 61.6367 45.7885 61.6418 45.7778C62.5695 43.6587 63.1608 41.6496 63.4153 39.7504L63.409 39.7914C63.7817 37.6263 63.8278 35.0867 63.5468 32.1732L63.5465 32.1725C63.293 29.5628 62.7679 26.9712 61.9713 24.3977C61.8099 23.8758 61.3041 23.6005 60.8418 23.7828C60.3791 23.9655 60.1354 24.5366 60.2971 25.0585C61.0489 27.4885 61.5443 29.9327 61.7834 32.3908V32.3901C62.0451 35.1027 62.0066 37.4426 61.668 39.4094C61.6658 39.4232 61.6636 39.4368 61.6617 39.4507C61.4346 41.1443 60.8979 42.9576 60.0515 44.8902L60.0663 44.8578C59.0361 47.0101 57.8806 48.7817 56.6 50.1724C56.2471 50.5559 56.2364 51.1896 56.5757 51.5884C56.9154 51.9868 57.4767 51.9992 57.8299 51.6158Z" fill="#363435"/>
<path d="M55.203 14.451C55.9939 15.355 56.652 16.3579 57.1777 17.4592C57.4101 17.9462 57.9481 18.1282 58.3792 17.8658C58.8106 17.6034 58.9717 16.996 58.7393 16.5093C58.1332 15.2393 57.3751 14.0843 56.4653 13.0439C56.1213 12.6505 55.5597 12.6462 55.2112 13.0347C54.8624 13.4235 54.8589 14.0572 55.203 14.451Z" fill="#363435"/>
<path d="M26.5614 10.9258C19.5376 11.6258 14.2754 16.0766 10.7754 24.278L10.7773 24.2737C7.62536 31.5739 8.076 38.6691 12.1285 45.5595L12.132 45.5655C15.6497 51.4548 21.0844 55.2847 28.4358 57.0549C28.4718 57.0634 28.5084 57.0695 28.5449 57.073C38.0085 57.9881 45.0112 55.9316 49.5525 50.9036C49.9022 50.5166 49.9079 49.8825 49.5648 49.4876C49.222 49.0928 48.6604 49.0864 48.3107 49.4738C44.1569 54.0723 37.6188 55.9405 28.6963 55.0778L28.8057 55.0963C21.9214 53.4382 16.8537 49.8882 13.6028 44.4458L13.6063 44.4515C9.92804 38.198 9.51651 31.7644 12.3717 25.1514L12.3732 25.1471C15.5816 17.6297 20.3629 13.5541 26.7172 12.9204C27.2053 12.8719 27.5658 12.386 27.5226 11.8352C27.4797 11.284 27.0492 10.8771 26.5614 10.9258Z" fill="#363435"/>
<path d="M27.968 56.1696C27.9055 56.7229 27.8734 57.1701 27.8715 57.5108V57.5076C27.8699 57.6953 27.8702 57.8939 27.8727 58.1036V58.1068C27.892 59.4658 27.9017 60.2416 27.9017 60.435V60.4371C27.9033 61.3553 27.9002 61.9613 27.892 62.2558V62.2536C27.8689 63.0219 27.8305 63.6258 27.7762 64.0651C27.7084 64.6127 28.0468 65.1187 28.5321 65.1948C29.0171 65.2714 29.4652 64.8894 29.5327 64.3414C29.5958 63.8326 29.6396 63.1594 29.6645 62.3209L29.6648 62.3188C29.6737 62.0015 29.6771 61.3731 29.6756 60.4332V60.4353C29.6756 60.231 29.6658 59.4441 29.6462 58.0744V58.078C29.644 57.8832 29.6437 57.6995 29.645 57.5269V57.5236C29.6466 57.2634 29.674 56.8967 29.7276 56.4231C29.7894 55.8745 29.446 55.3732 28.96 55.303C28.4741 55.2333 28.0301 55.6213 27.968 56.1696Z" fill="#363435"/>
<mask id="mask0_2620_1257" style="mask-type:luminance" maskUnits="userSpaceOnUse" x="15" y="63" width="25" height="3">
<path d="M15.9492 63.2085H39.8451V65.6103H15.9492V63.2085Z" fill="white"/>
</mask>
<g mask="url(#mask0_2620_1257)">
<path d="M38.936 63.6081C38.5718 63.6063 38.2542 63.5992 37.983 63.5871L37.9894 63.5874C35.8213 63.4731 34.2238 63.3991 33.1964 63.3646L33.2021 63.3649H33.2002L33.1964 63.3646C31.6054 63.3076 30.2561 63.2702 29.1479 63.2524H29.1492H29.146C28.5491 63.2421 28.0322 63.2357 27.5958 63.2335H27.5967C27.3177 63.2318 26.2108 63.2289 24.2761 63.2253C21.9514 63.2211 20.0164 63.2182 18.4718 63.2168H18.4709C17.8503 63.2168 17.3205 63.2211 16.8818 63.2293C16.3924 63.2385 16.0017 63.6942 16.0099 64.2472C16.0181 64.8001 16.4217 65.2409 16.9115 65.2316C17.34 65.2234 17.86 65.2195 18.4712 65.2192H18.4702C20.0129 65.2206 21.9473 65.2234 24.2733 65.2277C26.2079 65.2316 27.3123 65.2341 27.5863 65.2359H27.5873C28.0171 65.2384 28.5276 65.2444 29.1186 65.2548H29.1227C30.2204 65.2726 31.5597 65.3096 33.1402 65.3662H33.1361H33.144C34.1617 65.4004 35.7491 65.4741 37.9064 65.5877L37.9127 65.588C38.2051 65.6012 38.5434 65.6087 38.9278 65.6108C39.4176 65.6133 39.8165 65.1668 39.8187 64.6139C39.8209 64.061 39.4258 63.6106 38.936 63.6081Z" fill="#363435"/>
</g>
<path d="M49.758 50.0875C50.5369 51.2022 50.997 52.1016 51.1383 52.7855C51.1424 52.8051 51.1471 52.8243 51.1521 52.8436C51.2572 53.243 51.224 53.5147 51.0522 53.6585L51.2039 53.5563C50.9872 53.671 50.6725 53.5524 50.2594 53.2L50.2748 53.2131C49.7321 52.7289 49.2191 51.9446 48.7359 50.8604C48.5155 50.3666 47.9826 50.1679 47.5449 50.4164C47.1075 50.665 46.9312 51.267 47.1516 51.7608C47.7524 53.1088 48.4266 54.1164 49.1743 54.784L49.19 54.7975C50.1724 55.6356 51.0948 55.8261 51.9575 55.3693C52.0108 55.3408 52.0619 55.3066 52.1092 55.2668C52.9458 54.5657 53.1934 53.5677 52.8522 52.2728L52.8657 52.3309C52.6646 51.3567 52.0928 50.1953 51.1503 48.847C50.8469 48.4127 50.2894 48.3386 49.9046 48.6811C49.5202 49.0236 49.4543 49.6531 49.758 50.0875Z" fill="#363435"/>
<mask id="mask1_2620_1257" style="mask-type:luminance" maskUnits="userSpaceOnUse" x="20" y="5" width="9" height="8">
<path d="M20.3887 5.38574H28.0579V12.8049H20.3887V5.38574Z" fill="white"/>
</mask>
<g mask="url(#mask1_2620_1257)">
<path d="M27.9149 10.8953C27.2773 9.52843 26.3956 8.28514 25.2691 7.16504L25.2575 7.15365C24.0755 6.0186 22.9948 5.43398 22.0154 5.3998C21.9706 5.39838 21.9255 5.40087 21.881 5.40693C21.7662 5.42259 21.6568 5.44823 21.5531 5.48347C20.9766 5.68001 20.6225 6.1101 20.49 6.7734H20.4903C20.4386 7.0326 20.4295 7.31956 20.4635 7.6343C20.4916 7.89599 20.5503 8.18296 20.6392 8.4952L20.6357 8.48345C20.8993 9.4501 21.6306 10.7521 22.8293 12.3899C23.1415 12.8161 23.7003 12.8763 24.0777 12.5238C24.4555 12.1717 24.5085 11.5404 24.1966 11.1142C23.1475 9.68081 22.5256 8.60771 22.331 7.89421L22.3276 7.8821C22.2733 7.69127 22.2389 7.52785 22.2241 7.3922C22.215 7.30675 22.2137 7.24729 22.2207 7.21311C22.2014 7.30959 22.15 7.3719 22.0661 7.40074C22.0721 7.3986 22.0819 7.39647 22.0951 7.39469L21.9608 7.40145C22.5262 7.42139 23.2421 7.84721 24.1083 8.67927L24.0967 8.66788C25.0597 9.62562 25.8093 10.6791 26.3457 11.8284C26.574 12.3176 27.1101 12.5053 27.5437 12.2478C27.977 11.9901 28.1432 11.3845 27.9149 10.8953Z" fill="#363435"/>
</g>
</svg>
