<svg width="70" height="71" viewBox="0 0 70 71" fill="none" xmlns="http://www.w3.org/2000/svg">
<mask id="mask0_2620_1282" style="mask-type:luminance" maskUnits="userSpaceOnUse" x="10" y="4" width="50" height="63">
<path d="M10.9375 4.99219H59.4016V66.0679H10.9375V4.99219Z" fill="white"/>
</mask>
<g mask="url(#mask0_2620_1282)">
<path d="M58.8111 49.1062C58.4556 45.5062 58.177 41.8995 57.8607 38.2952C57.3743 32.3017 56.6586 26.3146 56.622 20.2953C56.6516 18.0999 56.6754 16.0306 56.6432 13.7872C56.6106 12.1883 56.6398 8.90992 55.5596 7.71653C54.536 6.62653 52.9787 6.35832 51.5833 6.0337C48.0155 5.24448 44.3524 5.06757 40.7081 5.0236C34.5314 4.91987 28.2341 5.19447 22.3393 7.20393C20.4178 7.87028 18.499 8.60377 16.7588 9.6706C16.3469 9.56889 15.9857 9.90424 15.6849 10.1473C15.0541 10.6797 14.8373 11.5021 14.7449 12.292C14.7238 12.4619 14.7073 12.6314 14.6892 12.8013C13.9057 13.1776 13.2172 13.7181 12.8161 14.3962C12.377 15.2404 12.6882 16.4402 13.6415 16.7578C13.8386 16.8373 14.0504 16.8836 14.2639 16.8981C14.1676 17.7669 14.0766 18.6366 13.9957 19.5071C12.8221 19.8864 11.766 20.5833 11.4256 21.6142C11 22.9439 12.1611 24.0537 13.3693 24.3552C13.4676 24.3793 13.5744 24.4005 13.6865 24.4163C13.6751 24.8658 13.6677 25.3153 13.6667 25.7658C13.6687 26.0749 13.6731 26.3861 13.6751 26.696C12.3632 27.2106 11.1668 28.2049 11.2494 29.5504C11.3511 30.6118 12.3538 31.3128 13.3471 31.4605C13.4623 31.4866 13.6019 31.5024 13.7496 31.5044C13.7654 32.2755 13.7818 33.0469 13.801 33.819C12.6848 34.1678 11.5985 34.8533 11.1456 35.8215C10.6136 37.082 11.7358 38.1683 12.9218 38.3757C13.2478 38.4355 13.5767 38.4701 13.9057 38.4335C13.9215 39.1848 13.9359 39.935 13.9497 40.6853C12.5143 41.118 11.2453 42.2443 11.3951 43.8066C11.4864 44.8701 12.3404 45.8392 13.3837 46.0614C13.5818 46.1242 13.8178 46.1138 14.0272 46.0467C14.0323 46.6586 14.0346 47.2706 14.0366 47.8826C12.8966 48.3875 11.8331 49.3254 11.8657 50.6359C11.9369 51.8263 12.993 52.7159 14.1078 52.9475C14.1289 52.9549 14.1498 52.9599 14.1706 52.9663C14.2011 53.5299 14.2327 54.0939 14.2639 54.6575C13.9947 54.7915 13.7318 54.9372 13.476 55.0819C11.6727 56.0668 11.0872 58.177 13.1105 59.2962C13.4414 59.4512 13.804 59.5674 14.1739 59.5496C14.2985 59.558 14.4274 59.5382 14.5499 59.4952C14.6214 60.3543 14.7144 61.2126 14.9041 62.0529C14.9084 62.0697 14.9125 62.0864 14.9168 62.1032C14.8121 62.404 14.8759 62.8199 15.034 63.0764C15.4123 63.7693 16.1784 64.1902 16.9263 64.3665C18.0529 64.5172 19.1643 64.1902 20.2322 63.8257C23.9245 63.304 27.6967 63.2768 31.4205 63.2724C33.1003 63.2946 34.7798 63.3376 36.4583 63.4118C40.1801 63.544 43.818 64.0113 47.4949 64.6766C49.9038 65.0832 52.2862 65.6552 54.7005 66.0251C54.7895 66.0419 54.8784 66.049 54.9667 66.049C55.5522 66.049 56.1054 65.7012 56.3602 65.1617C56.7385 64.3863 56.6358 63.5135 56.6388 62.6793C56.6432 62.3808 56.6586 62.0821 56.6965 61.7857C56.709 61.7229 56.7174 61.6598 56.7194 61.598C57.5536 61.3402 58.2807 60.9243 58.7168 60.2287C59.0551 59.7507 59.1377 59.1736 59.1944 58.6056C59.3012 57.8406 59.3683 57.0705 59.363 56.2984C59.2992 53.8948 58.9658 51.5047 58.8121 49.1052L58.8111 49.1062ZM17.8253 13.6815C17.9102 13.7536 17.9901 13.8376 18.0603 13.9349C18.2738 14.4086 17.8306 14.8205 17.6212 15.2028C17.6128 15.2226 17.6064 15.2428 17.599 15.2626C17.6735 14.7355 17.7491 14.2085 17.8253 13.6815ZM16.367 11.5042C16.4768 11.1802 16.8007 11.0379 17.0374 10.8251C16.9716 11.2077 16.9411 11.6015 16.8971 11.8237C16.8803 11.9526 16.8679 12.0816 16.8531 12.2105C16.6342 12.2272 16.41 12.2585 16.1834 12.3038C16.2129 12.0312 16.2633 11.762 16.366 11.5052L16.367 11.5042ZM14.3854 15.3307C14.0229 14.902 14.2135 14.4432 14.5667 14.0954C14.5345 14.4536 14.5019 14.8111 14.4609 15.1683C14.4526 15.2364 14.4452 15.3045 14.4368 15.3717C14.419 15.3579 14.4012 15.3442 14.3844 15.3297L14.3854 15.3307ZM16.0401 14.8601C16.0776 14.3636 16.1028 13.8681 16.125 13.3703C16.3365 13.3303 16.5523 13.3085 16.7641 13.3149C16.652 15.2666 16.7547 17.2314 16.6738 19.1875C16.3492 19.1529 15.9887 19.1509 15.6104 19.1825C15.7446 17.7407 15.8997 16.3009 16.0401 14.8601ZM12.8412 21.8835C12.7049 21.3229 13.2394 20.8861 13.6657 20.6229C13.7442 20.5803 13.8262 20.5404 13.9077 20.5028C13.8439 21.2769 13.7916 22.0513 13.7506 22.8278C13.3659 22.5971 13.0296 22.2974 12.8412 21.8848V21.8835ZM15.273 25.2679C15.275 23.5277 15.3831 21.7945 15.5318 20.0637C15.8984 20.0375 16.2653 20.0613 16.6195 20.1486C16.6057 20.3265 16.5899 20.5048 16.5711 20.6827C16.4412 22.2524 16.2317 23.8157 16.1186 25.3864C16.0954 25.6976 16.0776 26.0098 16.0619 26.322C15.89 26.3002 15.7161 26.2928 15.5412 26.3002C15.4553 26.3012 15.3663 26.3062 15.275 26.3136C15.272 25.9658 15.271 25.617 15.272 25.2689L15.273 25.2679ZM17.1317 49.0038C17.223 49.1471 17.2858 49.3264 17.31 49.5506C17.3026 49.8061 17.2449 50.0589 17.1485 50.2955C17.1435 49.8648 17.1381 49.4342 17.1317 49.0038ZM15.5842 41.7958C15.7718 41.8304 15.9511 41.8881 16.1132 41.9707C16.2683 43.7834 16.3942 45.5992 16.4466 47.4173C16.1794 47.3858 15.8997 47.3868 15.6147 47.4203C15.6188 45.5468 15.6073 43.6713 15.5852 41.7968L15.5842 41.7958ZM16.8813 43.3265C16.8709 43.1611 16.8605 42.9966 16.8511 42.8311C16.9055 42.9945 16.9055 43.16 16.8813 43.3265ZM15.6493 40.5124C15.6218 40.5091 15.5946 40.5081 15.5684 40.505C15.5402 38.5644 15.5003 36.6228 15.4533 34.6835C15.5768 34.7096 15.6953 34.7506 15.8031 34.808C15.7614 36.5526 15.7698 38.2972 15.9393 40.0388C15.9551 40.2083 15.9709 40.3771 15.9867 40.547C15.8766 40.5302 15.7644 40.5175 15.648 40.5114L15.6493 40.5124ZM15.84 33.5844C15.7027 33.5666 15.5634 33.5582 15.4251 33.5559C15.4167 33.2343 15.4093 32.9117 15.4009 32.5901C15.3747 30.8347 15.317 29.0807 15.2898 27.3257C15.5278 27.3183 15.7665 27.3415 16.0011 27.4002C16.0075 27.4013 16.0139 27.4033 16.0189 27.4056C15.9877 28.3654 15.9749 29.3251 15.9551 30.2849C15.9259 31.3839 15.8776 32.484 15.84 33.5844ZM12.9114 29.3963C12.5267 28.887 13.0977 28.2794 13.5002 27.9756C13.561 27.9293 13.6237 27.8873 13.6878 27.8454C13.6962 28.555 13.7077 29.2664 13.7211 29.9777C13.4133 29.8532 13.1155 29.6917 12.9114 29.3953V29.3963ZM12.815 36.4972C12.6482 36.3589 12.4471 36.1746 12.5509 35.9396C12.7539 35.3948 13.2894 35.0776 13.8262 34.8721C13.8426 35.5928 13.8607 36.3149 13.8762 37.0357C13.4992 36.9017 13.1239 36.7624 12.8137 36.4972H12.815ZM13.0057 43.4105C13.0014 42.7797 13.4153 42.302 13.9729 42.0254C13.9823 42.7042 13.9906 43.3833 13.9957 44.06C14.0031 44.3054 14.0074 44.5515 14.0125 44.7969C13.5284 44.4468 13.0631 44.057 13.0057 43.4105ZM14.0491 49.4499C14.0554 50.0303 14.0668 50.6098 14.0836 51.1905C13.4183 50.6853 13.4676 50.0075 14.0491 49.4499ZM15.6104 48.7732C15.6104 48.7208 15.6104 48.6684 15.6104 48.6151C15.9101 48.5446 16.2076 48.5248 16.4684 48.5751C16.4718 48.945 16.4728 49.315 16.4684 49.6856C16.4674 51.162 16.4654 52.6437 16.4979 54.1231C16.4728 54.1211 16.4466 54.1177 16.4214 54.1157C16.175 54.0989 15.932 54.1157 15.6943 54.1557C15.648 52.3617 15.5979 50.5668 15.6094 48.7732H15.6104ZM13.5851 57.4572C13.2716 56.9356 13.762 56.3676 14.3364 55.9399C14.376 56.66 14.415 57.3807 14.4526 58.1004C14.3972 58.0806 14.3414 58.0618 14.2871 58.0397C14.001 57.9195 13.7724 57.7003 13.5851 57.4572ZM55.1812 64.2164C55.152 64.58 55.2212 64.9962 55.0251 65.3198C54.8556 65.4917 54.581 65.4162 54.3642 65.4004C51.0143 64.7958 47.6865 64.0667 44.3649 63.3228C40.9596 62.5329 37.4895 62.0727 34.0023 61.8454C40.2724 61.9522 46.5465 62.3033 52.8166 62.1052C53.5122 62.0519 54.3598 62.0213 55.2064 61.9115C55.1574 62.6783 55.1762 63.4413 55.1812 64.2164ZM58.3888 59.1693C57.9537 60.8061 55.0359 60.7158 53.6538 60.7967C49.691 60.8541 45.7113 60.6772 41.7287 60.5C36.9507 60.2885 32.1678 60.0756 27.4063 60.2683C24.9765 60.4234 22.5424 60.8145 20.2342 61.6044C19.6592 61.8078 19.0952 62.0361 18.5494 62.3087C18.3241 62.407 18.1062 62.5339 17.8874 62.6585C17.7699 62.6783 17.6514 62.6974 17.5332 62.7128C17.3603 62.733 17.1831 62.7464 17.0132 62.7014C16.6738 62.5967 16.3251 62.4604 16.0703 62.2036C16.0179 62.1452 15.9665 62.0811 15.9122 62.0193C15.9028 61.9575 15.8923 61.8968 15.8806 61.838C15.7759 60.8625 15.7749 59.8796 15.7581 58.901C15.7685 57.6761 15.7497 56.4515 15.7215 55.2265C15.9917 55.1762 16.2727 55.19 16.5325 55.2725C16.6111 57.4834 16.787 59.6879 17.1801 61.8686C17.272 62.3661 17.9555 62.4372 18.168 62.0089C18.2949 61.7719 18.165 61.5268 18.1103 61.2878C17.8034 60.0065 17.599 58.7147 17.4607 57.4143C17.971 57.7882 18.8146 57.4508 18.8428 56.7677C18.8679 56.3286 18.7662 55.8613 18.5943 55.4592C18.3537 54.8606 17.8296 54.4763 17.2375 54.2762C17.1989 53.3416 17.1791 52.4057 17.1643 51.4691C17.6316 52.0264 18.8092 51.8213 18.7494 50.4298C18.9183 48.9417 18.1838 47.9507 17.1055 47.569C17.0951 47.1387 17.0824 46.708 17.0646 46.2783C17.0408 45.8362 17.0132 45.3951 16.986 44.953C17.4691 45.3931 18.3755 45.1561 18.497 44.4582C18.8585 42.8687 18.1271 41.3443 16.743 40.7585C16.7306 40.4399 16.7178 40.1213 16.7094 39.8031C16.6832 38.9038 16.6822 38.0061 16.6936 37.1092C17.1233 37.2978 17.6933 37.1656 17.9018 36.605C18.1546 35.6308 17.7121 34.478 16.8625 33.9322C16.832 33.9124 16.7997 33.8966 16.7682 33.8788C16.7944 32.9274 16.8185 31.9761 16.8279 31.0224C16.8333 29.9599 16.8081 28.8974 16.7839 27.834C17.1455 28.1891 17.3066 28.6964 16.9505 29.1741C16.3992 30.4745 18.4164 31.0214 18.6209 29.6195C18.976 28.1757 18.0277 26.9464 16.7558 26.4885C16.7306 24.9997 16.7336 23.5109 16.8487 22.0241C16.8877 21.4373 16.9347 20.8515 16.9904 20.2668C17.6148 20.5528 17.7353 21.2695 17.4617 21.8616C17.2304 22.3605 16.7252 22.4713 16.8477 23.1494C16.9776 23.9248 18.0445 24.1511 18.4846 23.5025C19.4651 21.9214 19.0156 19.6404 17.0941 19.2463C17.2207 18.0717 17.3728 16.9004 17.5352 15.7299C17.6202 16.5449 18.8021 16.8551 19.2922 15.9239C20.1674 14.3236 19.5836 12.7889 18.0065 12.3216C18.0663 11.7684 18.1754 10.8462 18.0831 10.295C22.1621 8.69911 26.4341 7.56245 30.7679 6.90751C37.8161 5.66578 45.2115 5.56205 52.1123 7.64402C53.0167 7.95521 53.9375 8.19624 54.8784 8.36173C55.3857 8.53562 55.3575 9.33524 55.4548 9.82334C55.6045 11.0872 55.5283 12.3592 55.4706 13.6261C55.3743 16.7453 55.1268 19.8636 55.2044 22.9869C55.3239 29.019 55.9715 35.0208 56.382 41.0371C56.5311 43.4397 56.7603 45.8362 56.995 48.2324C57.278 51.2375 57.3921 54.2752 58.0356 57.232C58.136 57.8765 58.4358 58.5103 58.3918 59.1693H58.3888ZM36.6583 26.9246C35.9732 25.463 35.2367 23.8996 33.8409 22.9879C31.5222 21.3806 28.0267 22.2262 27.267 25.0971C26.8658 26.9034 27.5751 28.7803 28.5517 30.2859C30.4588 33.1181 33.5864 34.8271 36.5274 36.3905C37.3113 36.7611 37.5963 35.9722 37.984 35.4733C38.9531 34.2937 40.0512 33.2292 41.1033 32.1248C51.2405 22.3299 41.0046 16.7608 36.6583 26.9246ZM43.9238 26.0484C42.2547 29.543 38.8179 31.7065 36.5462 34.7664C36.4176 34.6741 36.2854 34.5851 36.1555 34.4948C35.7281 34.2014 35.3005 33.908 34.8761 33.6106C32.1392 31.7737 29.262 29.4349 28.5967 26.0306C28.2657 24.3018 30.0103 22.7093 31.7025 23.1796C33.2041 23.5747 34.0557 25.0081 34.5932 26.3619C35.1256 27.3573 35.3686 29.9357 36.9769 29.3741C37.8289 28.9236 37.7775 27.7742 38.0719 26.9665C38.3026 26.1555 38.5936 25.3623 39.0243 24.6351C40.9408 21.3168 45.8768 21.3 43.9238 26.0474V26.0484Z" fill="#363435"/>
</g>
</svg>
