<svg width="70" height="71" viewBox="0 0 70 71" fill="none" xmlns="http://www.w3.org/2000/svg">
<path d="M58.5565 52.7335C60.9404 48.4321 61.8788 42.3838 61.1683 36.1935C60.5118 30.4776 58.4501 24.6143 54.8231 19.8689C53.9002 18.6611 52.9118 17.5661 51.8643 16.5848C52.0057 16.4671 52.1382 16.3528 52.2576 16.2478C55.0881 18.5941 57.3852 19.8442 57.3972 19.8507L57.3965 19.852C57.8258 20.0881 58.3643 19.9351 58.607 19.5117C58.8496 19.1198 61.0407 15.3564 58.9395 10.6422C59.639 9.73324 60.7441 7.76027 58.641 6.27075C56.8614 5.01045 55.3427 5.57215 54.5908 6.02336C53.3878 5.5797 52.1334 5.56048 50.9397 5.77356C48.8719 6.14311 47.0093 7.23597 45.9999 7.93252C45.7165 8.1281 45.4995 8.29211 45.3623 8.40191L45.3609 8.39985C44.9738 8.7097 44.9113 9.27483 45.2212 9.66187C45.2555 9.70511 45.2936 9.74457 45.3341 9.77957C45.596 10.0441 46.93 11.3868 48.5685 12.9363C48.4103 13.1401 48.2383 13.3886 48.0667 13.6843C45.689 12.2336 43.0926 11.2608 40.3192 10.7911C34.7585 9.84888 28.5094 10.9356 21.9253 14.2265C21.5821 14.3981 21.2478 14.5792 20.9221 14.7683C20.7471 14.4646 20.5717 14.2104 20.4101 14.0024C22.0485 12.4529 23.3826 11.1106 23.6441 10.846C23.6849 10.811 23.7227 10.7715 23.757 10.7283C24.0673 10.3413 24.0048 9.77648 23.6173 9.46663L23.616 9.46835C23.479 9.35855 23.2618 9.19453 22.9783 8.9993C21.9689 8.30241 20.1063 7.20989 18.0385 6.84034C16.8452 6.62692 15.5907 6.64613 14.3878 7.0898C13.6358 6.63858 12.1175 6.07723 10.338 7.33719C8.23478 8.8267 9.33956 10.7997 10.039 11.7086C7.93756 16.4228 10.1289 20.1863 10.3712 20.5784C10.6139 21.0019 11.1524 21.1546 11.5824 20.9185L11.5814 20.9171C11.5934 20.9106 13.8905 19.6609 16.7213 17.3143C16.8455 17.4237 16.9842 17.5428 17.1321 17.666C8.87383 25.7844 8.61643 40.0451 8.60888 41.2295C8.60716 41.2484 8.60613 41.2673 8.60544 41.2865H8.60853V41.2896C8.6027 41.5171 8.59961 41.6619 8.59961 41.7271H8.60304C8.60338 47.867 12.0382 53.16 16.7055 56.9423C17.0326 57.2076 17.3668 57.4646 17.7056 57.7147C17.2282 58.846 16.7669 60.633 16.6811 62.1122C16.6406 62.8112 16.6804 63.4686 16.8356 64.0015C17.0459 64.7272 17.4588 65.2474 18.1373 65.4361C18.5245 65.5438 18.9638 65.5201 19.4587 65.3359C21.684 64.5065 23.3016 62.3781 24.0261 61.2643C26.7742 62.3864 29.5706 63.0294 32.1121 63.0973C32.3441 63.1038 32.4937 63.1066 32.5617 63.1066C37.984 63.1066 43.9263 62.4917 48.9347 60.5421C50.231 62.1671 54.1312 66.673 55.6413 64.0848C56.7135 62.2467 55.5761 58.4685 55.0599 56.9849C56.4523 55.7932 57.6402 54.3874 58.5565 52.7335ZM57.6096 7.72938C58.0434 8.03683 58.0626 8.44926 57.9343 8.82945C57.8938 8.76837 57.8533 8.70729 57.8107 8.64622C57.7002 8.48632 57.5774 8.32196 57.4435 8.15452C57.1954 7.84433 56.9386 7.5688 56.6751 7.32347C56.9562 7.36944 57.2709 7.48954 57.6096 7.72938ZM51.2555 7.54101C52.883 7.25004 54.657 7.5314 56.0473 9.26968C56.1366 9.3812 56.2334 9.51193 56.3377 9.6629C58.8294 13.2736 58.0451 16.4095 57.4617 17.808C56.5223 17.2264 54.8506 16.1144 52.9695 14.5068C52.918 14.4632 52.8665 14.4186 52.815 14.3744C52.8136 14.373 52.8123 14.372 52.8105 14.3706C50.7431 12.5905 48.4515 10.3557 47.301 9.21478C48.2164 8.61808 49.6764 7.8234 51.2555 7.54101ZM49.8799 14.1582C50.2135 14.4636 50.5505 14.7686 50.8865 15.0668C50.764 15.1715 50.6319 15.2816 50.4939 15.3917C50.1864 15.144 49.8741 14.9062 49.5576 14.6767C49.6695 14.4711 49.7793 14.2992 49.8799 14.1582ZM11.3693 8.79616C11.708 8.55632 12.0224 8.43622 12.3032 8.39025C12.0399 8.63524 11.7832 8.91111 11.5351 9.2213C11.4009 9.38874 11.278 9.55276 11.1675 9.71266C11.1253 9.77408 11.0851 9.83481 11.0443 9.89589C10.9159 9.5157 10.9355 9.10326 11.3693 8.79616ZM11.5169 18.8745C10.9331 17.4756 10.1492 14.3401 12.6409 10.7297C12.7449 10.5787 12.842 10.4476 12.9309 10.3365C14.3216 8.59818 16.0956 8.31647 17.7227 8.60745C19.3018 8.88984 20.7625 9.68452 21.6772 10.2812C20.4976 11.4513 18.1171 13.7725 16.0091 15.5733C14.1276 17.1808 12.4562 18.2929 11.5169 18.8745ZM18.0924 16.1329C18.428 15.8347 18.7651 15.53 19.0987 15.2246C19.1985 15.365 19.3077 15.5352 19.4189 15.739C19.0969 15.9696 18.785 16.2087 18.4823 16.4561C18.3453 16.3463 18.2139 16.2369 18.0924 16.1329ZM18.8347 63.659C18.7153 63.7036 18.6446 63.7187 18.6144 63.7105L18.554 63.5036C18.461 63.1817 18.4397 62.7264 18.4699 62.2103C18.5382 61.0375 18.8594 59.6736 19.2064 58.7506C20.2306 59.4111 21.29 60.0054 22.3677 60.5263C21.716 61.4918 20.4602 63.0537 18.8347 63.659ZM32.1546 61.3089C29.6317 61.2417 26.8277 60.5541 24.0913 59.3555C24.0865 59.3531 24.0824 59.35 24.0776 59.3473C24.034 59.3243 23.989 59.3061 23.9437 59.2907C21.8066 58.3395 19.7147 57.0768 17.8346 55.5537C13.5476 52.0795 10.3918 47.2607 10.3918 41.7271H10.3956C10.3956 41.5198 10.3963 41.3877 10.3973 41.3349L10.4008 41.3352C10.4014 41.3012 10.4004 41.2673 10.3977 41.2343C10.4045 40.0804 10.6582 25.7514 19.0455 18.32C19.0836 18.2915 19.1199 18.2596 19.1539 18.2246C19.7398 17.7137 20.3651 17.2367 21.032 16.7999C21.044 16.7924 21.056 16.7845 21.0676 16.7763C21.5938 16.4335 22.1457 16.1154 22.725 15.8258C28.9539 12.7123 34.8296 11.6781 40.0247 12.5582C45.2713 13.4472 49.8442 16.3041 53.3991 20.9559C56.8178 25.4292 58.7635 30.9769 59.3857 36.3969C60.0563 42.2311 59.1956 47.8876 56.9925 51.8637C55.1574 55.1752 52.0507 57.3928 48.365 58.8412C43.5848 60.7205 37.8309 61.311 32.5617 61.311C32.3454 61.311 32.2095 61.3103 32.1546 61.3089ZM54.0907 63.1869C53.7681 63.7397 51.7126 61.2204 50.6233 59.8153C51.6605 59.3233 52.6465 58.7647 53.5659 58.1319C54.0464 59.593 54.7205 62.1077 54.0907 63.1869Z" fill="#3A383D"/>
<path d="M52.089 48.3273C53.8211 45.2014 54.5044 40.8149 53.9893 36.3319C53.5146 32.1973 52.0217 27.9545 49.3955 24.5177C46.6069 20.8693 43.0008 18.6249 38.8501 17.9215C34.817 17.238 30.2895 18.0237 25.5247 20.4054C16.1761 25.0784 15.86 38.7675 15.85 39.9423C15.848 39.9619 15.8466 39.9811 15.8463 40.001L15.8493 40.0013V40.0037C15.8445 40.1928 15.8418 40.2995 15.8418 40.3232C15.8418 44.8034 18.3424 48.6612 21.7405 51.4144C25.095 54.133 29.3546 55.7828 32.9256 55.8781C33.1165 55.8833 33.228 55.886 33.2537 55.886C37.1838 55.886 41.4965 55.4369 45.1287 54.0091C48.0793 52.8494 50.5816 51.0476 52.089 48.3273ZM44.4766 52.3402C41.0888 53.6715 37.0005 54.0905 33.2537 54.0905C33.0766 54.0905 32.9833 54.0905 32.9682 54.0901C29.7705 54.0043 25.9259 52.5025 22.87 50.0258C19.8563 47.5837 17.6378 44.2012 17.6378 40.3232L17.6381 40.0487H17.6412C17.6423 40.0154 17.6409 39.9821 17.6385 39.9495C17.6471 38.8721 17.9288 26.2011 26.3244 22.0043C30.7336 19.8004 34.8877 19.0675 38.5553 19.6889C42.2465 20.3144 45.4664 22.3272 47.9715 25.6048C50.3897 28.7694 51.7663 32.6969 52.2077 36.5354C52.6813 40.6622 52.0766 44.6565 50.525 47.4575C49.2424 49.7708 47.0644 51.3231 44.4766 52.3402Z" fill="#3A383D"/>
<path d="M34.9779 26.8078C35.4721 26.8137 35.8771 26.4177 35.8829 25.9239L35.9303 21.9303C35.9361 21.4362 35.5404 21.0313 35.0466 21.0255C34.5527 21.0196 34.1473 21.4152 34.1415 21.909L34.0938 25.9033C34.0883 26.3971 34.484 26.802 34.9779 26.8078Z" fill="#3A383D"/>
<path d="M35.0466 46.2252C34.5527 46.2197 34.1473 46.6149 34.1415 47.109L34.0938 51.103C34.0883 51.5965 34.484 52.0017 34.9779 52.0075C35.4721 52.0134 35.8771 51.6177 35.8829 51.124L35.9303 47.13C35.9361 46.6362 35.5404 46.231 35.0466 46.2252Z" fill="#3A383D"/>
<path d="M43.1193 29.644L45.9779 26.8534C46.3324 26.5085 46.3403 25.942 45.9954 25.5872C45.6508 25.2331 45.0838 25.2252 44.7289 25.5697L41.8704 28.3604C41.5162 28.7052 41.5086 29.2721 41.8529 29.6262C42.1978 29.9806 42.7648 29.9885 43.1193 29.644Z" fill="#3A383D"/>
<path d="M26.9067 43.3887L24.0481 46.1793C23.6939 46.5238 23.6863 47.0907 24.0306 47.4455C24.3759 47.7996 24.9425 47.8075 25.297 47.4626L28.1556 44.6723C28.5101 44.3275 28.518 43.7606 28.1731 43.4062C27.8285 43.0517 27.2619 43.0442 26.9067 43.3887Z" fill="#3A383D"/>
<path d="M49.6227 35.646L45.6278 35.5987C45.1339 35.5929 44.7285 35.9885 44.7227 36.4822C44.7172 36.976 45.1126 37.3812 45.6068 37.3871L49.6017 37.4344C50.0956 37.4403 50.501 37.0446 50.5064 36.5509C50.5123 36.0571 50.1166 35.6519 49.6227 35.646Z" fill="#3A383D"/>
<path d="M25.3014 36.5509C25.3072 36.0571 24.9111 35.6519 24.4173 35.646L20.4227 35.5987C19.9288 35.5929 19.5235 35.9885 19.5176 36.4822C19.5121 36.976 19.9075 37.3812 20.4017 37.3871L24.3963 37.4344C24.8902 37.4403 25.2959 37.0446 25.3014 36.5509Z" fill="#3A383D"/>
<path d="M43.1681 43.3729C42.8236 43.0188 42.2566 43.0109 41.902 43.3554C41.5475 43.7002 41.5396 44.2667 41.8842 44.6215L44.6755 47.4791C45.0204 47.8335 45.5874 47.8414 45.9419 47.4969C46.2961 47.1521 46.304 46.5852 45.9591 46.2311L43.1681 43.3729Z" fill="#3A383D"/>
<path d="M26.8551 29.66C27.2 30.0145 27.767 30.022 28.1215 29.6775C28.4761 29.333 28.484 28.7658 28.1387 28.4117L25.3477 25.5538C25.0031 25.1994 24.4365 25.1915 24.0813 25.536C23.7271 25.8808 23.7196 26.4477 24.0638 26.8021L26.8551 29.66Z" fill="#3A383D"/>
<path d="M39.1425 28.0695C38.6716 27.9165 38.1658 28.1742 38.013 28.6446L34.7481 38.6279L29.3446 34.3608C28.9575 34.0547 28.3953 34.1206 28.0888 34.508C27.783 34.895 27.8489 35.457 28.2361 35.7631L34.6475 40.8263L35.2015 40.1249L34.6451 40.8294C35.0343 41.1368 35.5992 41.0706 35.9064 40.6815C35.9864 40.5799 36.041 40.4667 36.0712 40.3493L39.7177 29.1988C39.8705 28.7283 39.6131 28.2226 39.1425 28.0695Z" fill="#3A383D"/>
</svg>
